<svg width="89" height="57" viewBox="0 0 89 57" fill="none" xmlns="http://www.w3.org/2000/svg">
<path d="M10.2524 22.4814C10.2524 22.7319 10.3579 22.9561 10.5557 23.1406L19.4282 32.0396C19.626 32.2241 19.8369 32.3032 20.0742 32.3032C20.5752 32.3032 20.9575 31.9341 20.9575 31.4463C20.9575 31.209 20.8652 30.9717 20.707 30.8135L16.7651 26.832L12.8628 23.2197L15.9346 23.3647H33.8643C34.3652 23.3647 34.7344 22.9956 34.7344 22.4814C34.7344 21.9673 34.3652 21.5981 33.8643 21.5981H15.9346L12.876 21.7432L16.7651 18.1309L20.707 14.1494C20.8784 13.978 20.9575 13.7539 20.9575 13.5034C20.9575 13.0156 20.5752 12.6465 20.0742 12.6465C19.8369 12.6465 19.6128 12.7388 19.3623 12.9893L10.5557 21.8223C10.3579 22.0068 10.2524 22.231 10.2524 22.4814Z" fill="white"/>
<path d="M74.0052 52.0953C81.0953 49.5419 84.3851 43.2048 81.3978 35.0972L80.0743 31.5186C78.5996 27.4928 75.9526 25.8712 72.7573 26.9709C71.9254 25.8712 70.583 25.4612 69.1272 25.983C68.5978 26.1881 68.0873 26.4676 67.6336 26.8404C66.7449 25.6662 65.308 25.2189 63.8144 25.7594C63.3795 25.9085 62.9258 26.1694 62.5287 26.4676L60.2977 20.4288C59.5225 18.3786 57.6507 17.5585 55.7789 18.2295C53.8694 18.9005 52.9618 20.7271 53.737 22.7773L59.3713 38.0607C59.4091 38.1539 59.3902 38.2284 59.2956 38.2657C59.22 38.2843 59.1444 38.2657 59.0877 38.1911L56.1949 35.0413C55.1172 33.8857 53.8504 33.5688 52.6782 33.9789C51.0711 34.5567 50.0313 36.1036 50.7119 37.8929C50.8821 38.3589 51.2035 38.9553 51.5816 39.4213L58.1045 47.1934C62.5854 52.5613 68.0117 54.2387 74.0052 52.0953ZM73.3813 50.1942C68.3898 51.9835 63.682 50.8652 59.5981 45.9819L53.0942 38.2098C52.8862 37.9675 52.7349 37.7438 52.6215 37.4083C52.3568 36.7187 52.6782 35.9545 53.4912 35.6563C54.1151 35.4327 54.7013 35.675 55.2496 36.2714L59.5981 40.8191C60.2032 41.4528 60.7893 41.5274 61.3565 41.3224C62.0371 41.0801 62.3585 40.4091 62.0749 39.6636L55.5521 22.0131C55.2306 21.1185 55.571 20.2984 56.4407 19.9815C57.2915 19.6833 58.0478 20.0933 58.3881 20.988L63.0014 33.5129C63.1905 34.0162 63.7388 34.2771 64.2492 34.0907C64.7597 33.9043 64.9866 33.3638 64.7975 32.8606L63.1148 28.2942C63.4362 28.0146 63.8522 27.735 64.2303 27.6046C65.2513 27.2318 66.0832 27.6791 66.4802 28.7602L67.8605 32.5065C68.0873 33.1029 68.6356 33.2893 69.1272 33.1029C69.581 32.9351 69.8835 32.4505 69.6755 31.8728L68.4277 28.5179C68.7491 28.2383 69.165 27.9773 69.5621 27.8282C70.5641 27.4741 71.396 27.9028 71.7931 28.9838L72.7384 31.5186C72.9464 32.115 73.5136 32.3014 73.9863 32.115C74.459 31.9473 74.7615 31.4627 74.5346 30.8849L73.7405 28.7415C75.5745 28.0892 77.1815 29.3939 78.316 32.4133L79.4693 35.5818C82.0973 42.7202 79.5071 47.9949 73.3813 50.1942Z" fill="white"/>
</svg>
