<svg width="375" height="384" viewBox="0 0 375 384" fill="none" xmlns="http://www.w3.org/2000/svg">
<rect width="375" height="384" fill="#292A2D"/>
<g clip-path="url(#clip0_4268_209102)">
<path d="M103 100H273V284H103V100Z" fill="#292A2D"/>
<path fill-rule="evenodd" clip-rule="evenodd" d="M271 102H105V282H271V102ZM103 100V284H273V100H103Z" fill="#0A84FF"/>
<path d="M99 96H109V106H99V96Z" fill="#292A2D"/>
<path fill-rule="evenodd" clip-rule="evenodd" d="M107 98H101V104H107V98ZM99 96V106H109V96H99Z" fill="#0A84FF"/>
<path d="M267 96H277V106H267V96Z" fill="#292A2D"/>
<path fill-rule="evenodd" clip-rule="evenodd" d="M275 98H269V104H275V98ZM267 96V106H277V96H267Z" fill="#0A84FF"/>
<path d="M99 188H109V198H99V188Z" fill="#292A2D"/>
<path fill-rule="evenodd" clip-rule="evenodd" d="M107 190H101V196H107V190ZM99 188V198H109V188H99Z" fill="#0A84FF"/>
<path d="M267 188H277V198H267V188Z" fill="#292A2D"/>
<path fill-rule="evenodd" clip-rule="evenodd" d="M275 190H269V196H275V190ZM267 188V198H277V188H267Z" fill="#0A84FF"/>
<path d="M267 278H277V288H267V278Z" fill="#292A2D"/>
<path fill-rule="evenodd" clip-rule="evenodd" d="M275 280H269V286H275V280ZM267 278V288H277V278H267Z" fill="#0A84FF"/>
<path d="M183 278H193V288H183V278Z" fill="#292A2D"/>
<path fill-rule="evenodd" clip-rule="evenodd" d="M191 280H185V286H191V280ZM183 278V288H193V278H183Z" fill="#0A84FF"/>
<path d="M183 96H193V106H183V96Z" fill="#292A2D"/>
<path fill-rule="evenodd" clip-rule="evenodd" d="M191 98H185V104H191V98ZM183 96V106H193V96H183Z" fill="#0A84FF"/>
<path d="M99 278H109V288H99V278Z" fill="#292A2D"/>
<path fill-rule="evenodd" clip-rule="evenodd" d="M107 280H101V286H107V280ZM99 278V288H109V278H99Z" fill="#0A84FF"/>
<path d="M120.188 194.867C118.604 193.284 118.604 190.716 120.188 189.133L186.133 123.188C187.716 121.604 190.284 121.604 191.867 123.188L257.812 189.133C259.396 190.716 259.396 193.284 257.812 194.867L191.867 260.812C190.284 262.396 187.716 262.396 186.133 260.812L120.188 194.867Z" fill="#0A84FF"/>
<path d="M160.32 195.187C158.56 193.427 158.56 190.573 160.32 188.813L185.813 163.32C187.573 161.56 190.426 161.56 192.186 163.32L217.68 188.813C219.44 190.573 219.44 193.427 217.68 195.187L192.186 220.68C190.426 222.44 187.573 222.44 185.813 220.68L160.32 195.187Z" fill="#EBF02C"/>
</g>
<path d="M285.88 204.124C284.707 202.951 284.707 201.049 285.88 199.876L302.875 182.88C304.049 181.707 305.951 181.707 307.124 182.88L324.12 199.876C325.293 201.049 325.293 202.951 324.12 204.124L307.124 221.12C305.951 222.293 304.049 222.293 302.875 221.12L285.88 204.124Z" fill="#DADCE3"/>
<path d="M325.44 173.062C324.853 172.476 324.853 171.524 325.44 170.938L333.938 162.44C334.524 161.853 335.476 161.853 336.062 162.44L344.56 170.938C345.147 171.524 345.147 172.476 344.56 173.062L336.062 181.56C335.476 182.147 334.524 182.147 333.938 181.56L325.44 173.062Z" fill="#DADCE3"/>
<path d="M51.8798 204.124C50.7067 202.951 50.7067 201.049 51.8798 199.876L68.8755 182.88C70.0489 181.707 71.951 181.707 73.1242 182.88L90.1201 199.876C91.2933 201.049 91.2933 202.951 90.1201 204.124L73.1242 221.12C71.951 222.293 70.0489 222.293 68.8755 221.12L51.8798 204.124Z" fill="#DADCE3"/>
<path d="M31.4399 173.062C30.8534 172.476 30.8534 171.524 31.4399 170.938L39.9377 162.44C40.5244 161.853 41.4755 161.853 42.0621 162.44L50.56 170.938C51.1467 171.524 51.1467 172.476 50.56 173.062L42.0621 181.56C41.4755 182.147 40.5244 182.147 39.9377 181.56L31.4399 173.062Z" fill="#DADCE3"/>
<defs>
<clipPath id="clip0_4268_209102">
<rect width="178" height="192" fill="white" transform="translate(99 96)"/>
</clipPath>
</defs>
</svg>
