<svg width="314" height="192" viewBox="0 0 314 192" fill="none" xmlns="http://www.w3.org/2000/svg">
<path d="M72 4H242V188H72V4Z" fill="white"/>
<path fill-rule="evenodd" clip-rule="evenodd" d="M240 6H74V186H240V6ZM72 4V188H242V4H72Z" fill="#007AFF"/>
<path d="M68 0H78V10H68V0Z" fill="white"/>
<path fill-rule="evenodd" clip-rule="evenodd" d="M76 2H70V8H76V2ZM68 0V10H78V0H68Z" fill="#007AFF"/>
<path d="M236 0H246V10H236V0Z" fill="white"/>
<path fill-rule="evenodd" clip-rule="evenodd" d="M244 2H238V8H244V2ZM236 0V10H246V0H236Z" fill="#007AFF"/>
<path d="M68 92H78V102H68V92Z" fill="white"/>
<path fill-rule="evenodd" clip-rule="evenodd" d="M76 94H70V100H76V94ZM68 92V102H78V92H68Z" fill="#007AFF"/>
<path d="M236 92H246V102H236V92Z" fill="white"/>
<path fill-rule="evenodd" clip-rule="evenodd" d="M244 94H238V100H244V94ZM236 92V102H246V92H236Z" fill="#007AFF"/>
<path d="M236 182H246V192H236V182Z" fill="white"/>
<path fill-rule="evenodd" clip-rule="evenodd" d="M244 184H238V190H244V184ZM236 182V192H246V182H236Z" fill="#007AFF"/>
<path d="M152 182H162V192H152V182Z" fill="white"/>
<path fill-rule="evenodd" clip-rule="evenodd" d="M160 184H154V190H160V184ZM152 182V192H162V182H152Z" fill="#007AFF"/>
<path d="M152 0H162V10H152V0Z" fill="white"/>
<path fill-rule="evenodd" clip-rule="evenodd" d="M160 2H154V8H160V2ZM152 0V10H162V0H152Z" fill="#007AFF"/>
<path d="M68 182H78V192H68V182Z" fill="white"/>
<path fill-rule="evenodd" clip-rule="evenodd" d="M76 184H70V190H76V184ZM68 182V192H78V182H68Z" fill="#007AFF"/>
<path d="M89.1876 98.8672C87.6041 97.2838 87.6041 94.7162 89.1876 93.1328L155.133 27.1878C156.716 25.604 159.284 25.604 160.867 27.1878L226.812 93.1328C228.396 94.7162 228.396 97.2838 226.812 98.8672L160.867 164.812C159.284 166.396 156.716 166.396 155.133 164.812L89.1876 98.8672Z" fill="#007AFF"/>
<path d="M129.32 99.1866C127.56 97.4268 127.56 94.5731 129.32 92.8132L154.813 67.32C156.573 65.5599 159.426 65.5599 161.186 67.32L186.68 92.8132C188.44 94.5731 188.44 97.4268 186.68 99.1866L161.186 124.68C159.426 126.44 156.573 126.44 154.813 124.68L129.32 99.1866Z" fill="#EBF02C"/>
<path d="M254.88 66.1245C253.707 64.9513 253.707 63.0488 254.88 61.8756L271.875 44.88C273.049 43.7067 274.951 43.7067 276.124 44.88L293.12 61.8756C294.293 63.0488 294.293 64.9513 293.12 66.1245L276.124 83.12C274.951 84.2934 273.049 84.2934 271.875 83.12L254.88 66.1245Z" fill="#DADCE3"/>
<path d="M294.44 35.0622C293.853 34.4756 293.853 33.5244 294.44 32.9378L302.938 24.44C303.524 23.8533 304.476 23.8533 305.062 24.44L313.56 32.9378C314.147 33.5244 314.147 34.4756 313.56 35.0622L305.062 43.56C304.476 44.1467 303.524 44.1467 302.938 43.56L294.44 35.0622Z" fill="#DADCE3"/>
<path d="M20.8798 66.1245C19.7067 64.9513 19.7067 63.0488 20.8798 61.8756L37.8755 44.88C39.0489 43.7067 40.951 43.7067 42.1242 44.88L59.1201 61.8756C60.2933 63.0488 60.2933 64.9513 59.1201 66.1245L42.1242 83.12C40.951 84.2934 39.0489 84.2934 37.8755 83.12L20.8798 66.1245Z" fill="#DADCE3"/>
<path d="M0.439903 35.0622C-0.146634 34.4756 -0.146634 33.5244 0.439903 32.9378L8.93774 24.44C9.52443 23.8533 10.4755 23.8533 11.0621 24.44L19.56 32.9378C20.1467 33.5244 20.1467 34.4756 19.56 35.0622L11.0621 43.56C10.4755 44.1467 9.52443 44.1467 8.93774 43.56L0.439903 35.0622Z" fill="#DADCE3"/>
</svg>
