<svg width="266" height="258" viewBox="0 0 266 258" fill="none" xmlns="http://www.w3.org/2000/svg">
<path d="M0.420408 38.5732C-0.140335 38.4051 -0.14005 37.5878 0.42075 37.4198C9.81498 34.607 12.6074 31.8147 15.4267 22.4204C15.595 21.8597 16.4122 21.8599 16.5801 22.4207C19.393 31.8148 22.1853 34.607 31.5793 37.4198C32.1401 37.5878 32.1403 38.4051 31.5797 38.5732C22.1853 41.3925 19.3931 44.1851 16.5801 53.5792C16.4122 54.14 15.595 54.1403 15.4267 53.5796C12.6074 44.1851 9.81487 41.3926 0.420408 38.5732Z" fill="#DADCE3"/>
<path d="M234.42 214.573C233.86 214.405 233.86 213.588 234.421 213.42C243.815 210.607 246.607 207.815 249.427 198.42C249.595 197.86 250.412 197.86 250.58 198.421C253.393 207.815 256.185 210.607 265.579 213.42C266.14 213.588 266.14 214.405 265.58 214.573C256.185 217.392 253.393 220.185 250.58 229.579C250.412 230.14 249.595 230.14 249.427 229.58C246.607 220.185 243.815 217.393 234.42 214.573Z" fill="#DADCE3"/>
<path d="M219 4V252H49V4H219Z" fill="#292A2D"/>
<path fill-rule="evenodd" clip-rule="evenodd" d="M217 250V6H51V250H217ZM219 4H49V252H219V4Z" fill="#0A84FF"/>
<path d="M223 0V10H213V0H223Z" fill="#292A2D"/>
<path fill-rule="evenodd" clip-rule="evenodd" d="M221 8V2H215V8H221ZM223 0H213V10H223V0Z" fill="#0A84FF"/>
<path d="M223 247V257H213V247H223Z" fill="#292A2D"/>
<path fill-rule="evenodd" clip-rule="evenodd" d="M221 255V249H215V255H221ZM223 247H213V257H223V247Z" fill="#0A84FF"/>
<path d="M139 0V10H129V0H139Z" fill="#292A2D"/>
<path fill-rule="evenodd" clip-rule="evenodd" d="M137 8V2H131V8H137ZM139 0H129V10H139V0Z" fill="#0A84FF"/>
<path d="M139 247V257H129V247H139Z" fill="#292A2D"/>
<path fill-rule="evenodd" clip-rule="evenodd" d="M137 255V249H131V255H137ZM139 247H129V257H139V247Z" fill="#0A84FF"/>
<path d="M54 247V257H44V247H54Z" fill="#292A2D"/>
<path fill-rule="evenodd" clip-rule="evenodd" d="M52 255V249H46V255H52ZM54 247H44V257H54V247Z" fill="#0A84FF"/>
<path d="M54 124V134H44V124H54Z" fill="#292A2D"/>
<path fill-rule="evenodd" clip-rule="evenodd" d="M52 132V126H46V132H52ZM54 124H44V134H54V124Z" fill="#0A84FF"/>
<path d="M223 124V134H213V124H223Z" fill="#292A2D"/>
<path fill-rule="evenodd" clip-rule="evenodd" d="M221 132V126H215V132H221ZM223 124H213V134H223V124Z" fill="#0A84FF"/>
<path d="M54 0V10H44V0H54Z" fill="#292A2D"/>
<path fill-rule="evenodd" clip-rule="evenodd" d="M52 8V2H46V8H52ZM54 0H44V10H54V0Z" fill="#0A84FF"/>
<path d="M79.4714 86.0064C77.5088 85.4178 77.5098 82.5571 79.4726 81.9693C112.352 72.1243 122.126 62.3515 131.993 29.4713C132.582 27.5089 135.443 27.5098 136.03 29.4726C145.876 62.3517 155.648 72.1243 188.527 81.9693C190.49 82.5571 190.491 85.4178 188.529 86.0064C155.649 95.8737 145.876 105.648 136.03 138.527C135.443 140.49 132.582 140.491 131.993 138.529C122.126 105.648 112.352 95.874 79.4714 86.0064Z" fill="#0A84FF"/>
<path d="M154.442 155.088C152.519 154.439 152.52 151.55 154.443 150.902C166.91 146.702 171.704 141.909 175.912 129.442C176.561 127.519 179.45 127.52 180.098 129.443C184.298 141.909 189.091 146.702 201.557 150.902C203.48 151.55 203.481 154.439 201.558 155.088C189.091 159.296 184.298 164.09 180.098 176.557C179.45 178.48 176.561 178.481 175.912 176.558C171.704 164.091 166.909 159.297 154.442 155.088Z" fill="#EBF02C"/>
<path d="M74.4308 185.006C72.5224 184.403 72.5232 181.581 74.4322 180.979C93.512 174.957 99.9592 168.511 105.993 149.431C106.597 147.522 109.418 147.523 110.021 149.432C116.042 168.512 122.488 174.957 141.568 180.979C143.476 181.581 143.477 184.403 141.569 185.006C122.489 191.041 116.042 197.488 110.021 216.568C109.418 218.478 106.597 218.478 105.993 216.568C99.959 197.488 93.5118 191.041 74.4308 185.006Z" fill="#F6F6FB"/>
</svg>
