<svg width="160" height="160" viewBox="0 0 160 160" fill="none" xmlns="http://www.w3.org/2000/svg">
<path d="M80 160C124.183 160 160 124.183 160 80C160 35.8172 124.183 0 80 0C35.8172 0 0 35.8172 0 80C0 124.183 35.8172 160 80 160Z" fill="#000928" fill-opacity="0.87"/>
<path d="M35.4701 49.3099L30.5601 46.4799L31.0401 45.6699C31.842 44.2934 32.7131 42.9584 33.6501 41.6699L35.1801 42.7699C34.4701 43.7699 33.7901 44.7699 33.1801 45.8399L36.4401 47.7199L35.4701 49.3099Z" fill="#EBF02C"/>
<path d="M65.83 66.8501L57.74 62.1701L58.68 60.5401L66.78 65.2101L65.83 66.8501ZM55.71 61.0001L47.61 56.3301L48.61 54.6901L56.7 59.3701L55.71 61.0001ZM45.59 55.1601L37.49 50.4801L38.44 48.8501L46.53 53.5201L45.59 55.1601Z" fill="#EBF02C"/>
<path d="M73.3601 71.1901L67.8601 68.0201L68.8001 66.3801L71.4701 67.9201V64.8401H73.3601V71.1901Z" fill="#EBF02C"/>
<path d="M73.36 62.5H71.47V53.15H73.36V62.5ZM73.36 50.81H71.47V41.46H73.36V50.81ZM73.36 39.12H71.47V29.77H73.36V39.12Z" fill="#EBF02C"/>
<path d="M73.3601 27.43H71.4701V23.67C70.2401 23.67 69.0101 23.77 67.7901 23.89L67.6101 22C69.2051 21.8398 70.8071 21.7597 72.4101 21.76H73.4101L73.3601 27.43Z" fill="#EBF02C"/>
<path d="M36.6602 40.8001L35.1802 39.6201C37.2956 36.9964 39.6784 34.6002 42.2902 32.4701L43.4802 33.9301C40.9722 35.9746 38.6863 38.2773 36.6602 40.8001ZM45.4102 32.4501L44.2902 30.9301C47.0065 28.9431 49.9262 27.2502 53.0002 25.8801L53.7702 27.6001C50.819 28.9149 48.0165 30.5408 45.4102 32.4501ZM56.0002 26.6701L55.3202 24.9101C58.4694 23.7066 61.7378 22.8417 65.0702 22.3301L65.3602 24.1901C62.1611 24.6825 59.0234 25.5138 56.0002 26.6701Z" fill="#EBF02C"/>
<path d="M81.28 134.23C72.8925 134.228 64.6531 132.019 57.3898 127.824C50.1266 123.63 44.0952 117.597 39.9018 110.333C35.7083 103.069 33.5006 94.8293 33.5002 86.4418C33.4999 78.0543 35.7071 69.8144 39.9 62.55L40.37 61.73L80.37 84.81V38.66H81.31C87.6434 38.5684 93.9318 39.7367 99.8097 42.097C105.688 44.4573 111.038 47.9625 115.549 52.4089C120.06 56.8552 123.642 62.1539 126.087 67.997C128.532 73.8401 129.791 80.111 129.791 86.445C129.791 92.7791 128.532 99.0499 126.087 104.893C123.642 110.736 120.06 116.035 115.549 120.481C111.038 124.928 105.688 128.433 99.8097 130.793C93.9318 133.153 87.6434 134.322 81.31 134.23H81.28ZM41.07 64.32C36.2421 73.1007 34.4209 83.2202 35.8845 93.1331C37.3481 103.046 42.0161 112.207 49.1756 119.218C56.3351 126.229 65.5925 130.704 75.534 131.959C85.4754 133.214 95.5545 131.181 104.232 126.17C112.909 121.158 119.708 113.445 123.589 104.207C127.471 94.9686 128.222 84.7139 125.728 75.0089C123.234 65.3038 117.632 56.6817 109.778 50.4595C101.923 44.2373 92.2483 40.757 82.23 40.55V88.08L41.07 64.32Z" fill="white"/>
</svg>
