<svg width="160" height="160" viewBox="0 0 160 160" fill="none" xmlns="http://www.w3.org/2000/svg">
<path d="M80 160C124.183 160 160 124.183 160 80C160 35.8172 124.183 0 80 0C35.8172 0 0 35.8172 0 80C0 124.183 35.8172 160 80 160Z" fill="#000928" fill-opacity="0.87"/>
<path d="M125.56 114.76H38.8199C38.5759 114.76 38.3419 114.663 38.1694 114.491C37.9968 114.318 37.8999 114.084 37.8999 113.84V39.76H39.7499V112.91H125.56V114.76Z" fill="white"/>
<path d="M49.2499 106.32L47.6399 105.42L60.3199 82.66C60.3994 82.511 60.5196 82.3876 60.6666 82.3044C60.8136 82.2212 60.9812 82.1815 61.1499 82.19C61.3172 82.1932 61.4805 82.2425 61.6216 82.3325C61.7628 82.4225 61.8763 82.5496 61.9499 82.7L66.7199 92.16L66.7999 91.94C69.7655 83.2889 73.1699 74.7946 76.9999 66.49C80.2399 59.7 84.2899 52.11 91.1299 48C92.337 47.179 93.7705 46.7559 95.2299 46.79C97.4099 46.99 99.3199 48.79 100.47 51.79C101.01 53.1835 101.38 54.6375 101.57 56.12C103.601 56.5324 105.519 57.3808 107.19 58.6067C108.861 59.8325 110.246 61.4065 111.25 63.22C112.49 65.6772 113.005 68.4365 112.736 71.1757C112.467 73.9149 111.424 76.5211 109.73 78.69V78.99C109.646 79.6879 109.488 80.3751 109.26 81.04C110.695 81.7095 111.844 82.869 112.5 84.31C112.757 85.1236 112.836 85.9832 112.73 86.83C112.33 91.16 109.34 94.47 106.79 96.83L105.52 95.48C107.84 93.31 110.52 90.34 110.89 86.63C110.974 86.0541 110.93 85.4667 110.76 84.91C110.288 83.9439 109.496 83.1703 108.52 82.72C107.788 84.0836 106.831 85.3142 105.69 86.36C103.3 88.59 99.0899 90.88 95.1299 90.01C94.1163 89.7749 93.1685 89.315 92.3567 88.6641C91.5449 88.0133 90.8898 87.1882 90.4399 86.25C90.1047 85.5351 89.9435 84.7511 89.9696 83.962C89.9956 83.1729 90.2082 82.4011 90.5899 81.71C91.2775 80.5443 92.2883 79.603 93.4999 79C94.9451 78.2076 96.538 77.7214 98.1793 77.5717C99.8207 77.4221 101.475 77.6121 103.04 78.13C102.491 77.1622 102.061 76.1313 101.76 75.06C101.31 73.45 101.41 71.3 103.14 70.52C103.689 70.3209 104.28 70.2687 104.856 70.3687C105.431 70.4687 105.97 70.7173 106.42 71.09C107.952 72.1958 109.037 73.8133 109.48 75.65C110.397 74.0249 110.922 72.2084 111.015 70.3447C111.107 68.481 110.763 66.6214 110.011 64.9138C109.258 63.2063 108.118 61.6976 106.681 60.5079C105.243 59.3181 103.548 58.4799 101.73 58.06C101.853 61.5362 101.121 64.9894 99.5988 68.1171C98.0768 71.2448 95.811 73.9515 92.9999 76C92.0497 76.7471 90.896 77.1897 89.6899 77.27C86.9099 77.27 85.2499 74.38 84.8899 71.75C84.503 68.4832 85.2439 65.1822 86.9899 62.3942C88.7358 59.6061 91.382 57.4983 94.4899 56.42C96.1597 55.8786 97.9205 55.6746 99.6699 55.82C99.4835 54.6607 99.1751 53.5244 98.7499 52.43C98.3299 51.35 97.1299 48.83 95.0699 48.63C93.9904 48.6445 92.9421 48.9939 92.0699 49.63C85.6699 53.45 81.9199 60.45 78.6299 67.3C74.8377 75.5504 71.4667 83.9879 68.5299 92.58L67.7299 94.82C67.6607 94.986 67.548 95.1303 67.4037 95.2377C67.2594 95.345 67.0888 95.4115 66.9099 95.43C66.7295 95.4396 66.5503 95.3965 66.394 95.306C66.2377 95.2154 66.1112 95.0813 66.0299 94.92L61.0299 85.1L49.2499 106.32ZM99.1299 79.43C97.4706 79.4274 95.8385 79.8509 94.3899 80.66C93.4748 81.0982 92.707 81.7931 92.1799 82.66C91.9361 83.0983 91.8015 83.5889 91.7876 84.0902C91.7736 84.5915 91.8808 85.0889 92.0999 85.54C92.4296 86.217 92.9057 86.8123 93.4937 87.2827C94.0817 87.7532 94.767 88.087 95.4999 88.26C98.4999 88.93 102.17 87.14 104.4 85.06C105.405 84.1482 106.244 83.0689 106.88 81.87C104.55 80.4034 101.88 79.5629 99.1299 79.43ZM104.2 72.18C104.097 72.1786 103.995 72.199 103.9 72.24C103.32 72.5 103.28 73.65 103.54 74.59C103.995 76.2107 104.793 77.7148 105.88 79C106.23 79.42 106.4 79.45 106.4 79.45C106.498 79.3905 106.588 79.3201 106.67 79.24C107.113 78.8572 107.527 78.4428 107.91 78C107.939 76.9685 107.724 75.9448 107.28 75.013C106.837 74.0812 106.179 73.2679 105.36 72.64C105.024 72.3808 104.622 72.2214 104.2 72.18ZM98.5299 57.67C97.349 57.6693 96.1751 57.8515 95.0499 58.21C92.3686 59.1751 90.0891 61.0126 88.5768 63.428C87.0645 65.8433 86.4071 68.6964 86.7099 71.53C86.9699 73.41 88.1099 75.43 89.7099 75.45C90.5572 75.3573 91.356 75.0085 91.9999 74.45C94.609 72.5395 96.6974 70.0052 98.074 67.079C99.4506 64.1528 100.072 60.9281 99.8799 57.7C99.4308 57.6644 98.9801 57.6544 98.5299 57.67Z" fill="#EBF02C"/>
</svg>
