<svg width="81" height="80" viewBox="0 0 81 80" fill="none" xmlns="http://www.w3.org/2000/svg">
<rect x="1" y="0.5" width="79" height="79" stroke="#007AFF" stroke-dasharray="8 8"/>
<path d="M46.9153 30.1495C46.9153 31.4517 46.4544 32.678 45.5375 33.8875C45.0473 34.4737 43.9964 35.5267 42.266 37.0536L42.266 37.0535L42.2617 37.0574C40.6432 38.5193 39.4741 39.947 38.7222 41.3435L38.7217 41.3444C37.9077 42.8638 37.5347 44.5366 37.5347 46.4503V47.6293V48.1293H38.0347H42.1355H42.6355V47.6293V46.4503C42.6355 45.1418 42.9257 43.9509 43.5399 42.9114L43.5401 42.9115L43.5465 42.8998C44.0237 42.0408 44.7484 41.1652 45.8353 40.2759L45.8429 40.2697L45.8503 40.2631C48.1068 38.2631 49.5078 36.9156 50.0906 36.2798L50.1097 36.2589L50.1264 36.236C51.4205 34.4566 52.1186 32.3539 52.1186 29.9445C52.1186 26.7569 51.1048 24.2032 49.0355 22.3489C46.9715 20.3964 44.2227 19.5 40.854 19.5C37.0556 19.5 34.0388 20.6649 31.8741 23.0449C29.7742 25.3073 28.7193 28.3056 28.6667 31.9878L28.6595 32.4949H29.1667H33.2675H33.7675V31.9949C33.7675 29.555 34.315 27.729 35.3522 26.4089L35.358 26.4016L35.3634 26.3941C36.4759 24.8645 38.2008 24.0882 40.6489 24.0882C42.7096 24.0882 44.2075 24.6245 45.3189 25.7359C46.3346 26.7516 46.9153 28.2035 46.9153 30.1495Z" stroke="#007AFF"/>
<path d="M42.6785 59.4972L42.6865 59.4898L42.6942 59.4821C43.3565 58.8199 43.7121 57.973 43.7121 56.9244C43.7121 55.9225 43.3534 55.0771 42.6942 54.4179C41.9679 53.6916 41.0623 53.4 40.0852 53.4C39.1028 53.4 38.2544 53.6949 37.5351 54.4103C36.8021 55.0866 36.5096 55.9469 36.5096 56.9244C36.5096 57.9103 36.8065 58.7612 37.5275 59.4821L37.5352 59.4898L37.5432 59.4972C38.2438 60.1394 39.0799 60.5 40.0852 60.5C41.0823 60.5 41.9716 60.1452 42.6785 59.4972Z" stroke="#007AFF"/>
</svg>
