<svg width="80" height="78" viewBox="0 0 80 78" fill="none" xmlns="http://www.w3.org/2000/svg">
<mask id="mask0_2685_90059" style="mask-type:alpha" maskUnits="userSpaceOnUse" x="0" y="0" width="80" height="78">
<rect width="80" height="78" fill="#C4C4C4"/>
</mask>
<g mask="url(#mask0_2685_90059)">
<path d="M78.6013 66.1047C79.2109 67.9051 79.6306 69.7608 79.8418 71.6552L79.3448 71.7106C79.4476 72.6318 79.5 73.5623 79.5 74.5C79.5 75.5526 79.4531 76.6085 79.361 77.6644L79.8592 77.7079C79.6745 79.8265 79.3107 81.944 78.7824 84.0362L78.2976 83.9138C77.7829 85.9521 77.1099 87.967 76.2922 89.9353L76.7539 90.1272C75.936 92.0962 74.9751 94.0183 73.8849 95.8709L73.454 95.6174C72.381 97.4409 71.1813 99.1964 69.8683 100.862L70.2609 101.171C68.9334 102.855 67.4912 104.448 65.9476 105.928L65.6016 105.567C64.0682 107.036 62.4342 108.393 60.7132 109.613L61.0024 110.021C59.2505 111.264 57.4088 112.368 55.4909 113.311L55.2703 112.862C53.3735 113.795 51.4024 114.567 49.3707 115.156L49.5101 115.636C47.4671 116.229 45.3626 116.64 43.2102 116.846L43.1624 116.349C42.1192 116.449 41.0645 116.5 40 116.5C38.9355 116.5 37.8808 116.449 36.8376 116.349L36.7898 116.846C34.6374 116.64 32.5329 116.229 30.4899 115.636L30.6293 115.156C28.5976 114.567 26.6265 113.795 24.7297 112.862L24.5091 113.311C22.5912 112.368 20.7495 111.264 18.9976 110.021L19.2868 109.613C17.5658 108.393 15.9318 107.036 14.3984 105.567L14.0524 105.927C12.5088 104.448 11.0666 102.855 9.73909 101.171L10.1317 100.862C8.81868 99.1964 7.61901 97.4409 6.54598 95.6173L6.11505 95.8709C5.02488 94.0183 4.06404 92.0962 3.24606 90.1272L3.7078 89.9353C2.89011 87.967 2.21712 85.9521 1.70241 83.9138L1.21763 84.0362C0.689301 81.944 0.32551 79.8265 0.140845 77.7079L0.638957 77.6644C0.546913 76.6084 0.5 75.5526 0.5 74.5C0.5 73.5623 0.552445 72.6318 0.65515 71.7106L0.158229 71.6552C0.369441 69.7608 0.789058 67.9051 1.39871 66.1047L1.87229 66.2651C2.46605 64.5116 3.24395 62.8101 4.18905 61.1768L3.75627 60.9264C4.69502 59.304 5.79515 57.7492 7.03993 56.2773L7.42171 56.6002C8.61133 55.1935 9.93593 53.8626 11.3808 52.6214L11.055 52.2421C12.4731 51.0239 14.0045 49.8919 15.6354 48.8586L15.903 49.281C17.4637 48.2921 19.1173 47.3945 20.8513 46.5996L20.6429 46.145C22.344 45.3652 24.1209 44.6834 25.9623 44.11L26.111 44.5874C27.8782 44.0371 29.7057 43.5877 31.5831 43.2488L31.4943 42.7567C33.3353 42.4244 35.2235 42.1971 37.1493 42.0837L37.1787 42.5828C38.1105 42.5279 39.0513 42.5 40 42.5C40.9487 42.5 41.8895 42.5279 42.8213 42.5828L42.8507 42.0837C44.7765 42.1971 46.6647 42.4244 48.5057 42.7567L48.4169 43.2488C50.2943 43.5877 52.1218 44.0371 53.889 44.5874L54.0377 44.11C55.8791 44.6834 57.6561 45.3652 59.3571 46.145L59.1487 46.5996C60.8827 47.3945 62.5363 48.2921 64.097 49.281L64.3646 48.8586C65.9955 49.8919 67.5269 51.0239 68.945 52.2421L68.6192 52.6214C70.0641 53.8626 71.3887 55.1935 72.5783 56.6002L72.9601 56.2773C74.2048 57.7492 75.305 59.304 76.2437 60.9264L75.811 61.1768C76.7561 62.8101 77.534 64.5116 78.1277 66.2651L78.6013 66.1047Z" fill="white" stroke="#007AFF" stroke-dasharray="6 6"/>
<circle cx="40" cy="17" r="16.5" fill="white" stroke="#007AFF" stroke-dasharray="6 6"/>
</g>
</svg>
