<svg width="81" height="78" viewBox="0 0 81 78" fill="none" xmlns="http://www.w3.org/2000/svg">
<path d="M79.1013 66.1047C79.7109 67.9051 80.1306 69.7608 80.3418 71.6552L79.8448 71.7106C79.9476 72.6318 80 73.5623 80 74.5C80 75.5526 79.9531 76.6085 79.861 77.6644L80.3592 77.7079C80.1745 79.8265 79.8107 81.944 79.2824 84.0362L78.7976 83.9138C78.2829 85.9521 77.6099 87.967 76.7922 89.9353L77.2539 90.1272C76.436 92.0962 75.4751 94.0183 74.3849 95.8709L73.954 95.6174C72.881 97.4409 71.6813 99.1964 70.3683 100.862L70.7609 101.171C69.4334 102.855 67.9912 104.448 66.4476 105.928L66.1016 105.567C64.5682 107.036 62.9342 108.393 61.2132 109.613L61.5024 110.021C59.7505 111.264 57.9088 112.368 55.9909 113.311L55.7703 112.862C53.8735 113.795 51.9024 114.567 49.8707 115.156L50.0101 115.636C47.9671 116.229 45.8626 116.64 43.7102 116.846L43.6624 116.349C42.6192 116.449 41.5645 116.5 40.5 116.5C39.4355 116.5 38.3808 116.449 37.3376 116.349L37.2898 116.846C35.1374 116.64 33.0329 116.229 30.9899 115.636L31.1293 115.156C29.0976 114.567 27.1265 113.795 25.2297 112.862L25.0091 113.311C23.0912 112.368 21.2495 111.264 19.4976 110.021L19.7868 109.613C18.0658 108.393 16.4318 107.036 14.8984 105.567L14.5524 105.927C13.0088 104.448 11.5666 102.855 10.2391 101.171L10.6317 100.862C9.31868 99.1964 8.11901 97.4409 7.04598 95.6173L6.61505 95.8709C5.52488 94.0183 4.56404 92.0962 3.74606 90.1272L4.2078 89.9353C3.39011 87.967 2.71712 85.9521 2.20241 83.9138L1.71763 84.0362C1.1893 81.944 0.82551 79.8265 0.640845 77.7079L1.13896 77.6644C1.04691 76.6084 1 75.5526 1 74.5C1 73.5623 1.05244 72.6318 1.15515 71.7106L0.658229 71.6552C0.869441 69.7608 1.28906 67.9051 1.89871 66.1047L2.37229 66.2651C2.96605 64.5116 3.74395 62.8101 4.68905 61.1768L4.25627 60.9264C5.19502 59.304 6.29515 57.7492 7.53993 56.2773L7.92171 56.6002C9.11133 55.1935 10.4359 53.8626 11.8808 52.6214L11.555 52.2421C12.9731 51.0239 14.5045 49.8919 16.1354 48.8586L16.403 49.281C17.9637 48.2921 19.6173 47.3945 21.3513 46.5996L21.1429 46.145C22.844 45.3652 24.6209 44.6834 26.4623 44.11L26.611 44.5874C28.3782 44.0371 30.2057 43.5877 32.0831 43.2488L31.9943 42.7567C33.8353 42.4244 35.7235 42.1971 37.6493 42.0837L37.6787 42.5828C38.6105 42.5279 39.5513 42.5 40.5 42.5C41.4487 42.5 42.3895 42.5279 43.3213 42.5828L43.3507 42.0837C45.2765 42.1971 47.1647 42.4244 49.0057 42.7567L48.9169 43.2488C50.7943 43.5877 52.6218 44.0371 54.389 44.5874L54.5377 44.11C56.3791 44.6834 58.1561 45.3652 59.8571 46.145L59.6487 46.5996C61.3827 47.3945 63.0363 48.2921 64.597 49.281L64.8646 48.8586C66.4955 49.8919 68.0269 51.0239 69.445 52.2421L69.1192 52.6214C70.5641 53.8626 71.8887 55.1935 73.0783 56.6002L73.4601 56.2773C74.7048 57.7492 75.805 59.304 76.7437 60.9264L76.311 61.1768C77.2561 62.8101 78.034 64.5116 78.6277 66.2651L79.1013 66.1047Z" stroke="#0A84FF" stroke-dasharray="6 6"/>
<circle cx="40.5" cy="17" r="16.5" stroke="#0A84FF" stroke-dasharray="6 6"/>
</svg>
