<svg width="160" height="160" viewBox="0 0 160 160" fill="none" xmlns="http://www.w3.org/2000/svg">
<path d="M80 160C124.183 160 160 124.183 160 80C160 35.8172 124.183 0 80 0C35.8172 0 0 35.8172 0 80C0 124.183 35.8172 160 80 160Z" fill="#000928" fill-opacity="0.87"/>
<path d="M66.7901 89.01H52.8201V113.84H66.7901V89.01Z" fill="#EBF02C"/>
<path d="M86.6299 74.24H72.6599V113.84H86.6299V74.24Z" fill="#EBF02C"/>
<path d="M102.12 98.0001L99.48 95.3601L96.84 98.0001L94.2 95.3801L92.5 97.0901V113.84H106.5V97.0801L104.8 95.3801L102.12 98.0001Z" fill="#EBF02C"/>
<path d="M121.56 50.6699L94.77 84.5699L97.17 84.2799L97.6 87.9999L101.31 87.5599L101.74 91.2699L105.45 90.8299C105.45 90.8299 105.6 92.1399 105.73 93.2299L132.51 59.3399L121.56 50.6699Z" fill="#EBF02C"/>
<path d="M125.89 114.76H39.15C38.906 114.76 38.672 114.663 38.4994 114.491C38.3269 114.318 38.23 114.084 38.23 113.84V39.76H40.08V112.91H125.89V114.76Z" fill="white"/>
</svg>
