<svg width="255" height="231" viewBox="0 0 255 231" fill="none" xmlns="http://www.w3.org/2000/svg">
<g clip-path="url(#clip0)">
<path d="M235.419 168.846H25.8866V181.728H235.419V168.846Z" fill="#143361"/>
<path d="M225.073 0H36.2319C19.7059 0 6.30893 13.3977 6.30893 29.9246V143.588C6.30893 160.115 19.7059 173.512 36.2319 173.512H225.073C241.599 173.512 254.996 160.115 254.996 143.588V29.9246C254.996 13.3977 241.599 0 225.073 0Z" fill="#244FAF"/>
<path d="M237.937 179.526H23.3758V184.239H237.937V179.526Z" fill="#244FAF"/>
<path d="M230.351 52.2916C236.522 52.2916 241.525 47.2886 241.525 41.117C241.525 34.9454 236.522 29.9424 230.351 29.9424C224.18 29.9424 219.177 34.9454 219.177 41.117C219.177 47.2886 224.18 52.2916 230.351 52.2916Z" fill="#5E88A0"/>
<path d="M235.3 33.3557L222.59 46.0657C222.012 46.6435 222.012 47.5802 222.59 48.158L223.307 48.8748C223.885 49.4525 224.821 49.4525 225.399 48.8748L238.108 36.1647C238.686 35.587 238.686 34.6502 238.108 34.0724L237.392 33.3557C236.814 32.7779 235.877 32.7779 235.3 33.3557Z" fill="#3A4860"/>
<path d="M242.77 111.248H217.175C216.493 111.248 215.941 111.801 215.941 112.482C215.941 113.164 216.493 113.716 217.175 113.716H242.77C243.451 113.716 244.004 113.164 244.004 112.482C244.004 111.801 243.451 111.248 242.77 111.248Z" fill="#6087A0"/>
<path d="M242.77 115.512H217.175C216.493 115.512 215.941 116.065 215.941 116.747C215.941 117.428 216.493 117.981 217.175 117.981H242.77C243.451 117.981 244.004 117.428 244.004 116.747C244.004 116.065 243.451 115.512 242.77 115.512Z" fill="#6087A0"/>
<path d="M242.77 119.777H217.175C216.493 119.777 215.941 120.329 215.941 121.011C215.941 121.692 216.493 122.245 217.175 122.245H242.77C243.451 122.245 244.004 121.692 244.004 121.011C244.004 120.329 243.451 119.777 242.77 119.777Z" fill="#6087A0"/>
<path d="M242.77 124.041H217.175C216.493 124.041 215.941 124.594 215.941 125.275C215.941 125.957 216.493 126.509 217.175 126.509H242.77C243.451 126.509 244.004 125.957 244.004 125.275C244.004 124.594 243.451 124.041 242.77 124.041Z" fill="#6087A0"/>
<path d="M242.77 128.302H217.175C216.493 128.302 215.941 128.854 215.941 129.536C215.941 130.217 216.493 130.77 217.175 130.77H242.77C243.451 130.77 244.004 130.217 244.004 129.536C244.004 128.854 243.451 128.302 242.77 128.302Z" fill="#6087A0"/>
<path d="M242.77 132.566H217.175C216.493 132.566 215.941 133.119 215.941 133.8C215.941 134.482 216.493 135.034 217.175 135.034H242.77C243.451 135.034 244.004 134.482 244.004 133.8C244.004 133.119 243.451 132.566 242.77 132.566Z" fill="#6087A0"/>
<path d="M242.77 136.83H217.175C216.493 136.83 215.941 137.383 215.941 138.064C215.941 138.746 216.493 139.299 217.175 139.299H242.77C243.451 139.299 244.004 138.746 244.004 138.064C244.004 137.383 243.451 136.83 242.77 136.83Z" fill="#6087A0"/>
<path d="M242.77 141.095H217.175C216.493 141.095 215.941 141.647 215.941 142.329C215.941 143.01 216.493 143.563 217.175 143.563H242.77C243.451 143.563 244.004 143.01 244.004 142.329C244.004 141.647 243.451 141.095 242.77 141.095Z" fill="#6087A0"/>
<path d="M242.77 68.3138H217.175C216.493 68.3138 215.941 68.8663 215.941 69.5479C215.941 70.2295 216.493 70.782 217.175 70.782H242.77C243.451 70.782 244.004 70.2295 244.004 69.5479C244.004 68.8663 243.451 68.3138 242.77 68.3138Z" fill="#6087A0"/>
<path d="M242.77 72.5781H217.175C216.493 72.5781 215.941 73.1306 215.941 73.8122C215.941 74.4937 216.493 75.0463 217.175 75.0463H242.77C243.451 75.0463 244.004 74.4937 244.004 73.8122C244.004 73.1306 243.451 72.5781 242.77 72.5781Z" fill="#6087A0"/>
<path d="M242.77 76.8423H217.175C216.493 76.8423 215.941 77.3949 215.941 78.0764C215.941 78.758 216.493 79.3106 217.175 79.3106H242.77C243.451 79.3106 244.004 78.758 244.004 78.0764C244.004 77.3949 243.451 76.8423 242.77 76.8423Z" fill="#6087A0"/>
<path d="M242.77 81.103H217.175C216.493 81.103 215.941 81.6556 215.941 82.3372C215.941 83.0187 216.493 83.5713 217.175 83.5713H242.77C243.451 83.5713 244.004 83.0187 244.004 82.3372C244.004 81.6556 243.451 81.103 242.77 81.103Z" fill="#6087A0"/>
<path d="M242.77 85.3673H217.175C216.493 85.3673 215.941 85.9199 215.941 86.6014C215.941 87.283 216.493 87.8355 217.175 87.8355H242.77C243.451 87.8355 244.004 87.283 244.004 86.6014C244.004 85.9199 243.451 85.3673 242.77 85.3673Z" fill="#6087A0"/>
<path d="M242.77 89.6316H217.175C216.493 89.6316 215.941 90.1841 215.941 90.8657C215.941 91.5473 216.493 92.0998 217.175 92.0998H242.77C243.451 92.0998 244.004 91.5473 244.004 90.8657C244.004 90.1841 243.451 89.6316 242.77 89.6316Z" fill="#6087A0"/>
<path d="M242.77 93.8959H217.175C216.493 93.8959 215.941 94.4484 215.941 95.13C215.941 95.8116 216.493 96.3641 217.175 96.3641H242.77C243.451 96.3641 244.004 95.8116 244.004 95.13C244.004 94.4484 243.451 93.8959 242.77 93.8959Z" fill="#6087A0"/>
<path d="M242.77 98.1602H217.175C216.493 98.1602 215.941 98.7127 215.941 99.3943C215.941 100.076 216.493 100.628 217.175 100.628H242.77C243.451 100.628 244.004 100.076 244.004 99.3943C244.004 98.7127 243.451 98.1602 242.77 98.1602Z" fill="#6087A0"/>
<path d="M242.77 102.421H217.175C216.493 102.421 215.941 102.973 215.941 103.655C215.941 104.337 216.493 104.889 217.175 104.889H242.77C243.451 104.889 244.004 104.337 244.004 103.655C244.004 102.973 243.451 102.421 242.77 102.421Z" fill="#6087A0"/>
<path d="M242.77 106.685H217.175C216.493 106.685 215.941 107.238 215.941 107.919C215.941 108.601 216.493 109.153 217.175 109.153H242.77C243.451 109.153 244.004 108.601 244.004 107.919C244.004 107.238 243.451 106.685 242.77 106.685Z" fill="#6087A0"/>
<path d="M221.762 63.1497C223.112 63.1497 224.206 62.0558 224.206 60.7064C224.206 59.357 223.112 58.263 221.762 58.263C220.413 58.263 219.319 59.357 219.319 60.7064C219.319 62.0558 220.413 63.1497 221.762 63.1497Z" fill="#6087A0"/>
<path d="M230.351 63.1497C231.7 63.1497 232.794 62.0558 232.794 60.7064C232.794 59.357 231.7 58.263 230.351 58.263C229.002 58.263 227.908 59.357 227.908 60.7064C227.908 62.0558 229.002 63.1497 230.351 63.1497Z" fill="#6087A0"/>
<path d="M238.936 63.1497C240.285 63.1497 241.379 62.0558 241.379 60.7064C241.379 59.357 240.285 58.263 238.936 58.263C237.587 58.263 236.493 59.357 236.493 60.7064C236.493 62.0558 237.587 63.1497 238.936 63.1497Z" fill="#6087A0"/>
<path d="M197.572 18.3517H35.5456C30.2091 18.3517 25.883 22.678 25.883 28.0148V146.824C25.883 152.161 30.2091 156.487 35.5456 156.487H197.572C202.909 156.487 207.235 152.161 207.235 146.824V28.0148C207.235 22.678 202.909 18.3517 197.572 18.3517Z" fill="#143360"/>
<path d="M113.906 121.192H87.2334C87.139 121.192 87.0486 121.155 86.9819 121.088C86.9152 121.021 86.8777 120.931 86.8777 120.837C86.8777 120.742 86.9152 120.652 86.9819 120.585C87.0486 120.518 87.139 120.481 87.2334 120.481H113.906C117.807 120.476 121.548 118.924 124.307 116.165C127.065 113.406 128.617 109.666 128.622 105.764V75.5335C128.617 71.6318 127.065 67.8912 124.307 65.1323C121.548 62.3734 117.807 60.8213 113.906 60.8166H83.677C79.7752 60.8204 76.0343 62.3721 73.2753 65.1313C70.5163 67.8904 68.9647 71.6315 68.9609 75.5335V99.7393C68.9609 99.8336 68.9235 99.9241 68.8568 99.9908C68.7901 100.057 68.6996 100.095 68.6053 100.095C68.511 100.095 68.4205 100.057 68.3538 99.9908C68.2871 99.9241 68.2497 99.8336 68.2497 99.7393V75.5478C68.2506 71.4531 69.8773 67.5263 72.7722 64.6306C75.6671 61.7349 79.5932 60.1072 83.6877 60.1053H113.917C118.007 60.11 121.928 61.737 124.82 64.6293C127.712 67.5217 129.339 71.4432 129.344 75.5335V105.764C129.339 109.856 127.711 113.779 124.816 116.672C121.922 119.565 117.998 121.19 113.906 121.192Z" fill="#F7CE53"/>
<path d="M166.91 44.8656H141.848C132.1 44.8656 124.198 52.7682 124.198 62.5166V87.5795C124.198 97.3279 132.1 105.231 141.848 105.231H166.91C176.657 105.231 184.56 97.3279 184.56 87.5795V62.5166C184.56 52.7682 176.657 44.8656 166.91 44.8656Z" fill="#F7CE53"/>
<g opacity="0.4">
<path opacity="0.4" d="M103.71 78.0195C103.052 76.4582 101.245 76.5756 99.9153 76.8957C98.5852 77.2158 96.8604 79.3675 96.8604 79.3675C95.3703 80.0112 91.0137 86.0929 89.5805 87.8249C88.1473 89.5569 75.4619 103.189 75.4619 103.189C75.0975 102.118 74.6578 101.075 74.146 100.066C73.4846 98.8715 71.3721 98.5336 69.1103 98.9568C66.8484 99.38 60.287 104.26 60.287 104.26C60.287 104.26 59.1312 104.327 55.8416 105.526C52.552 106.724 48.5084 109.381 48.5084 109.381C48.5084 109.381 46.019 109.402 41.5913 111.547C37.1637 113.692 25.2678 120.588 23.4718 123.557C21.6759 126.527 23.1766 156.551 22.2306 164.048C21.2847 171.546 0.469425 209.092 0.469425 209.092C-4.63036 241.456 33.5611 228.4 33.5611 228.4C33.5611 228.4 50.9658 186.657 54.2839 184.431C57.602 182.204 63.95 176.19 67.6557 171.325C71.3614 166.46 81.1236 156.007 82.2083 153.976C83.2929 151.946 85.793 147.674 86.2874 145.604C86.7817 143.534 89.0613 138.491 90.4767 136.261C91.8922 134.031 93.2578 129.593 93.2827 127.758C93.3076 125.922 90.6688 122.757 89.8366 122.618C89.0044 122.48 86.2483 119.844 85.3698 119.062C84.4914 118.279 83.6166 115.946 83.6166 115.946C83.6166 115.946 84.0149 115.726 85.0782 114.357C86.1416 112.987 90.3665 106.201 91.5081 104.085C92.6497 101.969 103.084 88.0205 104.172 85.6234C105.26 83.2263 104.048 80.2281 104.048 80.2281C104.048 80.2281 104.368 79.5809 103.71 78.0195ZM77.9229 131.367C77.6704 132.367 77.5886 133.701 77.016 134.355C76.337 135.147 75.6076 135.894 74.8324 136.592C74.6793 136.722 74.4937 136.808 74.2954 136.841C74.2776 135.184 74.5175 133.534 75.0067 131.951C75.8211 129.237 77.3112 125.446 77.3112 125.446L79.3454 126.936C79.3454 126.936 78.1754 130.354 77.9229 131.35V131.367Z" fill="white"/>
<path opacity="0.4" d="M60.1021 104.441C60.1021 104.441 53.6687 110.761 51.7874 112.063C49.9061 113.364 46.9436 114.794 44.881 116.654C43.5833 117.847 42.509 119.262 41.7087 120.833" fill="white"/>
<path opacity="0.4" d="M42.0146 120.968L41.3993 120.677C42.216 119.062 43.3185 117.609 44.6534 116.387C46.0226 115.167 47.7723 114.122 49.3193 113.204C50.1515 112.703 50.941 112.233 51.5918 111.782C53.4269 110.512 59.7998 104.26 59.8638 104.196L60.3404 104.683C60.0772 104.942 53.8643 111.042 51.983 112.344C51.3108 112.809 50.5142 113.286 49.6678 113.788C48.1492 114.694 46.428 115.719 45.1086 116.899C43.8469 118.064 42.7997 119.441 42.0146 120.968Z" fill="#13334A"/>
<path opacity="0.4" d="M48.5084 109.381C48.5084 109.381 41.2748 114.165 39.4753 115.456C37.6758 116.747 32.224 120.541 32.007 122.188" fill="white"/>
<path opacity="0.4" d="M32.3627 122.231L31.687 122.145C31.8754 120.627 35.4993 117.878 39.0201 115.367L39.2833 115.178C41.0615 113.901 48.263 109.132 48.3377 109.096L48.7147 109.666C48.64 109.712 41.4633 114.463 39.6816 115.733L39.4149 115.925C37.6972 117.131 32.5227 120.805 32.3627 122.231Z" fill="#13334A"/>
<path opacity="0.4" d="M75.2485 103.228C75.2485 103.228 69.0676 111.7 66.9694 113.407C64.8711 115.114 63.2708 116.732 61.9265 116.981" fill="white"/>
<path opacity="0.4" d="M61.9905 117.319L61.8802 116.654C62.8369 116.476 64.0425 115.452 65.4366 114.268C65.8598 113.912 66.3043 113.531 66.7738 113.151C68.8115 111.49 74.9284 103.118 74.9889 103.036L75.5401 103.438C75.2876 103.794 69.3094 111.974 67.2041 113.681C66.7382 114.058 66.2972 114.435 65.8776 114.79C64.3306 116.082 63.1214 117.106 61.9905 117.319Z" fill="#13334A"/>
<path opacity="0.4" d="M83.6166 115.943C83.6166 115.943 79.1569 120.289 77.4179 124.71C75.6788 129.13 74.4377 133.466 74.2421 135.55L74.3523 137.726C74.5968 138.881 74.7419 140.054 74.7862 141.233C74.8573 143.193 74.0216 147.742 74.0216 147.742" fill="white"/>
<path opacity="0.4" d="M74.3594 147.802L73.6873 147.681C73.6873 147.635 74.5159 143.147 74.4448 141.244C74.4013 140.088 74.2597 138.937 74.0216 137.805V137.744L73.9078 135.543V135.504C74.114 133.309 75.4014 128.913 77.1085 124.571C78.8546 120.132 83.204 115.865 83.3854 115.68L83.8619 116.167C83.8193 116.209 79.4343 120.513 77.7451 124.813C76.0914 129.02 74.7969 133.423 74.5906 135.536L74.7008 137.67C74.9457 138.841 75.0909 140.03 75.1347 141.226C75.1987 143.196 74.3914 147.617 74.3594 147.802Z" fill="#13334A"/>
<path opacity="0.4" d="M77.5068 125.574L79.3668 126.911C78.8212 128.312 78.3546 129.743 77.9691 131.197C77.6135 132.801 77.3503 134.166 76.2478 135.322C75.6915 135.941 75.0524 136.479 74.3488 136.923" fill="white"/>
<path opacity="0.4" d="M74.5159 137.218L74.1852 136.624C74.8552 136.195 75.4652 135.678 75.9989 135.088C76.9804 134.06 77.2436 132.872 77.5779 131.371L77.6348 131.122C77.9947 129.736 78.434 128.371 78.9507 127.036L77.3041 125.851L77.7024 125.296L79.7757 126.787L79.6797 127.036C79.141 128.421 78.6792 129.835 78.2963 131.271L78.2429 131.52C77.8873 133.06 77.6028 134.394 76.4897 135.557C75.9128 136.2 75.2484 136.76 74.5159 137.218Z" fill="#13334A"/>
<path opacity="0.4" d="M84.3101 124.379C84.3101 124.379 80.7715 125.037 79.3668 126.911L84.3101 124.379Z" fill="white"/>
<path opacity="0.4" d="M79.637 127.117L79.0929 126.705C80.5617 124.749 84.0967 124.069 84.246 124.045L84.374 124.713C84.3385 124.72 80.9493 125.371 79.637 127.117Z" fill="#13334A"/>
<path opacity="0.4" d="M96.6043 79.5631L95.4841 81.0141C95.4841 81.0141 95.2814 84.6382 99.869 84.5173L104.048 80.2246" fill="white"/>
<path opacity="0.4" d="M99.645 84.8623C98.1193 84.8623 96.9493 84.4497 96.1598 83.6389C95.4913 82.923 95.1266 81.9757 95.1427 80.9964V80.8897L96.3269 79.3532L96.8675 79.7694L95.8184 81.1315C95.8386 81.8888 96.133 82.6129 96.647 83.1694C97.3156 83.8523 98.3434 84.1866 99.7161 84.1794L103.795 79.9863L104.286 80.4629L100.018 84.8552H99.645V84.8623Z" fill="#13334A"/>
<path opacity="0.4" d="M81.3334 99.7535C81.3334 99.7535 85.1742 100.721 87.7775 105.654L81.3334 99.7535Z" fill="white"/>
<path opacity="0.4" d="M87.4859 105.814C84.9964 101.087 81.2978 100.095 81.2623 100.084L81.4294 99.4227C81.593 99.4618 85.4481 100.49 88.0904 105.494L87.4859 105.814Z" fill="#13334A"/>
<path opacity="0.4" d="M84.022 99.252C84.022 99.252 86.0029 100.056 86.5968 100.895C87.0042 101.502 87.3463 102.151 87.6174 102.83" fill="white"/>
<path opacity="0.4" d="M87.2974 102.951C87.037 102.3 86.7092 101.677 86.3194 101.094C85.8784 100.472 84.4203 99.7819 83.894 99.5685L84.15 98.9355C84.3634 99.0208 86.2412 99.8033 86.8777 100.714C87.3042 101.342 87.6619 102.015 87.9446 102.72L87.2974 102.951Z" fill="#13334A"/>
<path opacity="0.4" d="M81.0845 102.36C81.0845 102.36 83.3819 104.85 85.3129 105.014L81.0845 102.36Z" fill="white"/>
<path opacity="0.4" d="M85.2881 105.355C83.2467 105.191 80.9351 102.698 80.8355 102.592L81.3405 102.129C81.3619 102.154 83.5668 104.533 85.3414 104.672L85.2881 105.355Z" fill="#13334A"/>
<path opacity="0.4" d="M52.3137 117.237C52.3226 117.693 52.2379 118.147 52.0648 118.569C51.8917 118.991 51.6339 119.373 51.3073 119.691C50.7765 120.18 50.2875 120.711 49.8456 121.281" fill="white"/>
<path opacity="0.4" d="M50.1443 121.477L49.5824 121.089C50.0354 120.5 50.5388 119.951 51.0868 119.45C51.3789 119.166 51.6097 118.826 51.7651 118.45C51.9205 118.073 51.997 117.669 51.9901 117.262L52.6693 117.209C52.6841 117.716 52.593 118.22 52.4019 118.69C52.2109 119.159 51.9241 119.584 51.5598 119.937C51.0466 120.411 50.5733 120.926 50.1443 121.477Z" fill="#13334A"/>
<path opacity="0.4" d="M65.7531 124.176C65.7531 124.176 66.0091 126.31 64.7431 127L65.7531 124.176Z" fill="white"/>
<path opacity="0.4" d="M64.9031 127.299L64.5831 126.698C65.6251 126.143 65.4188 124.233 65.4153 124.208L66.0945 124.126C66.1052 124.233 66.3577 126.523 64.9031 127.299Z" fill="#13334A"/>
<path opacity="0.4" d="M47.943 183.78C47.943 183.78 52.6587 184.733 53.9318 184.491L47.943 183.78Z" fill="white"/>
<path opacity="0.4" d="M53.402 184.872C51.6487 184.872 48.0461 184.161 47.8754 184.114L48.0105 183.446C49.305 183.709 52.8756 184.345 53.8678 184.157L53.9923 184.829C53.7971 184.86 53.5996 184.875 53.402 184.872Z" fill="#13334A"/>
<path opacity="0.4" d="M0.469421 209.092C0.469421 209.092 21.2918 171.542 22.2378 164.048C23.1837 156.555 21.6936 126.527 23.4718 123.557C25.25 120.588 37.153 113.691 41.5842 111.547C46.0154 109.402 48.5013 109.381 48.5013 109.381C48.5013 109.381 52.5448 106.724 55.8345 105.526C59.1241 104.327 60.2799 104.26 60.2799 104.26C60.2799 104.26 66.8378 99.3765 69.1031 98.9568C71.3685 98.5371 73.4774 98.8714 74.1389 100.066C74.6507 101.075 75.0904 102.118 75.4548 103.189C75.4548 103.189 88.1367 89.5533 89.5734 87.8249C91.0102 86.0964 95.3631 80.0005 96.8532 79.3674C96.8532 79.3674 98.5781 77.2335 99.9081 76.8957C101.238 76.5578 103.045 76.4582 103.703 78.0195C104.361 79.5808 104.041 80.2246 104.041 80.2246C104.041 80.2246 105.257 83.2192 104.165 85.6198C103.073 88.0205 92.6461 101.98 91.501 104.082C90.3558 106.184 86.1344 112.973 85.0711 114.353C84.0078 115.733 83.6095 115.943 83.6095 115.943C83.6095 115.943 84.4843 118.269 85.3627 119.058C86.2411 119.848 89.0008 122.48 89.8295 122.615C90.6581 122.75 93.3005 125.919 93.2756 127.754C93.2507 129.589 91.8815 134.017 90.4696 136.258C89.0578 138.498 86.7746 143.538 86.2874 145.604C85.8001 147.671 83.2965 151.945 82.2083 153.976C81.12 156.007 71.3614 166.463 67.6557 171.325C63.95 176.187 57.6126 182.201 54.2839 184.431C50.9552 186.661 33.5611 228.4 33.5611 228.4" fill="white"/>
<path opacity="0.4" d="M33.8778 228.532L33.2483 228.272C33.9596 226.561 50.7312 186.405 54.0955 184.146C57.346 181.963 63.719 175.931 67.382 171.119C69.1353 168.821 72.1795 165.339 75.1241 161.975C78.3249 158.315 81.3513 154.862 81.9096 153.816C82.1088 153.439 82.3613 152.984 82.6209 152.483C83.7874 150.349 85.5478 147.166 85.939 145.526C86.4297 143.467 88.6845 138.434 90.171 136.076C91.5651 133.871 92.9058 129.518 92.9272 127.754C92.9485 125.99 90.331 123.056 89.7834 122.953C89.1041 122.842 87.6887 121.644 85.6189 119.752L85.1423 119.314C84.2106 118.482 83.3357 116.167 83.2966 116.067L83.1935 115.79L83.4531 115.648C83.4531 115.648 83.8407 115.399 84.8081 114.15C85.875 112.767 90.0892 105.995 91.2095 103.922C91.7145 102.983 93.9123 99.9064 96.4551 96.3428C99.6558 91.8722 103.262 86.8077 103.863 85.4811C104.88 83.2476 103.742 80.3846 103.731 80.3562L103.674 80.2139L103.742 80.0788C103.742 80.0788 103.962 79.5026 103.386 78.1547C102.942 77.0877 101.8 76.7925 99.9829 77.23C98.9872 77.4718 97.5753 79.0082 97.1165 79.5844L97.0881 79.6662L97.0098 79.6982C95.9643 80.1499 93.0765 83.9091 91.3482 86.1533C90.7365 86.9464 90.2101 87.6328 89.858 88.0596C88.4355 89.7774 76.2444 102.883 75.7252 103.442L75.334 103.858L75.1526 103.317C74.7949 102.266 74.3635 101.242 73.8616 100.251C73.3175 99.2662 71.4398 98.8892 69.1851 99.3089C67.0264 99.7108 60.5716 104.501 60.5076 104.551L60.4258 104.612H60.3227C60.3227 104.612 59.1455 104.704 55.9697 105.86C52.7939 107.016 48.7504 109.655 48.7077 109.68L48.6259 109.733H48.5263C48.5014 109.733 46.0369 109.79 41.7693 111.867C37.1105 114.122 25.4884 120.947 23.7991 123.749C22.8211 125.371 22.878 136.386 22.9314 146.102C22.9705 153.71 23.0096 160.897 22.6042 164.105C21.6582 171.574 1.64668 207.737 0.796714 209.273L0.199249 208.939C0.405517 208.565 21.0003 171.364 21.9249 164.02C22.3268 160.855 22.2805 153.706 22.2485 146.106C22.1916 135.347 22.1383 125.183 23.2159 123.397C25.0474 120.356 36.9931 113.421 41.4705 111.255C45.4714 109.321 47.9039 109.086 48.4267 109.057C49.0277 108.666 52.6766 106.34 55.7528 105.22C58.5445 104.203 59.8283 103.986 60.1875 103.943C60.9628 103.37 66.8663 99.0457 69.0784 98.6332C71.6603 98.153 73.7799 98.6581 74.4769 99.9171C74.9222 100.769 75.306 101.653 75.6256 102.56C77.7594 100.266 88.0728 89.155 89.3495 87.6222C89.7051 87.206 90.2172 86.5267 90.8254 85.7372C93.2579 82.5754 95.534 79.6911 96.6791 79.1114C96.9849 78.7557 98.5568 76.8992 99.8798 76.5827C102.608 75.9247 103.664 76.9383 104.073 77.9057C104.61 79.1861 104.535 79.9258 104.457 80.2352C104.677 80.8363 105.556 83.5215 104.531 85.7763C103.902 87.1634 100.264 92.2599 97.0632 96.7553C94.6378 100.152 92.351 103.36 91.8638 104.26C90.6867 106.34 86.4191 113.165 85.3522 114.563C84.9577 115.099 84.5161 115.599 84.0328 116.057C84.3351 116.807 85.0001 118.269 85.6011 118.802L86.0848 119.243C86.9596 120.047 89.2855 122.177 89.8972 122.281C90.9961 122.462 93.6527 125.837 93.6278 127.765C93.6029 129.628 92.2515 134.088 90.7827 136.443C89.3602 138.708 87.1054 143.716 86.636 145.69C86.2235 147.422 84.5022 150.541 83.2539 152.803C82.9765 153.304 82.7276 153.756 82.5427 154.129C81.9488 155.239 79.0397 158.564 75.6718 162.416C72.7343 165.773 69.6972 169.244 67.9581 171.528C64.1422 176.532 57.8083 182.489 54.5081 184.705C51.9226 186.43 39.8844 214.128 33.8778 228.532Z" fill="#13334A"/>
<path opacity="0.4" d="M103.71 78.0195C103.052 76.4582 101.245 76.5756 99.9153 76.8957C98.5852 77.2158 96.8604 79.3675 96.8604 79.3675C95.3703 80.0112 91.0137 86.0929 89.5805 87.8249C88.1473 89.5569 75.4619 103.189 75.4619 103.189C75.0975 102.118 74.6578 101.075 74.146 100.066C73.4846 98.8715 71.3721 98.5336 69.1103 98.9568C66.8484 99.38 60.287 104.26 60.287 104.26C60.287 104.26 59.1312 104.327 55.8416 105.526C52.552 106.724 48.5084 109.381 48.5084 109.381C48.5084 109.381 46.019 109.402 41.5913 111.547C37.1637 113.692 25.2678 120.588 23.4718 123.557C21.6759 126.527 23.1766 156.551 22.2306 164.048C21.2847 171.546 0.469425 209.092 0.469425 209.092C-4.63036 241.456 33.5611 228.4 33.5611 228.4C33.5611 228.4 50.9658 186.657 54.2839 184.431C57.602 182.204 63.95 176.19 67.6557 171.325C71.3614 166.46 81.1236 156.007 82.2083 153.976C83.2929 151.946 85.793 147.674 86.2874 145.604C86.7817 143.534 89.0613 138.491 90.4767 136.261C91.8922 134.031 93.2578 129.593 93.2827 127.758C93.3076 125.922 90.6688 122.757 89.8366 122.618C89.0044 122.48 86.2483 119.844 85.3698 119.062C84.4914 118.279 83.6166 115.946 83.6166 115.946C83.6166 115.946 84.0149 115.726 85.0782 114.357C86.1416 112.987 90.3665 106.201 91.5081 104.085C92.6497 101.969 103.084 88.0205 104.172 85.6234C105.26 83.2263 104.048 80.2281 104.048 80.2281C104.048 80.2281 104.368 79.5809 103.71 78.0195ZM77.9229 131.367C77.6704 132.367 77.5886 133.701 77.016 134.355C76.337 135.147 75.6076 135.894 74.8324 136.592C74.6793 136.722 74.4937 136.808 74.2954 136.841C74.2776 135.184 74.5175 133.534 75.0067 131.951C75.8211 129.237 77.3112 125.446 77.3112 125.446L79.3454 126.936C79.3454 126.936 78.1754 130.354 77.9229 131.35V131.367Z" fill="#D0D6DB"/>
<path opacity="0.4" d="M42.0146 120.968L41.3993 120.677C42.216 119.062 43.3185 117.609 44.6534 116.387C46.0226 115.167 47.7723 114.122 49.3193 113.204C50.1515 112.703 50.941 112.233 51.5918 111.782C53.4269 110.512 59.7998 104.26 59.8638 104.196L60.3404 104.683C60.0772 104.942 53.8643 111.042 51.983 112.344C51.3108 112.809 50.5142 113.286 49.6678 113.788C48.1492 114.694 46.428 115.719 45.1086 116.899C43.8469 118.064 42.7997 119.441 42.0146 120.968Z" fill="#13334A"/>
<path opacity="0.4" d="M32.3627 122.231L31.687 122.145C31.8754 120.627 35.4993 117.878 39.0201 115.367L39.2833 115.178C41.0615 113.901 48.263 109.132 48.3377 109.096L48.7147 109.666C48.64 109.712 41.4633 114.463 39.6816 115.733L39.4149 115.925C37.6972 117.131 32.5227 120.805 32.3627 122.231Z" fill="#13334A"/>
<path opacity="0.4" d="M61.9905 117.319L61.8802 116.654C62.8369 116.476 64.0425 115.452 65.4366 114.268C65.8598 113.912 66.3043 113.531 66.7738 113.151C68.8115 111.49 74.9284 103.118 74.9889 103.036L75.5401 103.438C75.2876 103.794 69.3094 111.974 67.2041 113.681C66.7382 114.058 66.2972 114.435 65.8776 114.79C64.3306 116.082 63.1214 117.106 61.9905 117.319Z" fill="#13334A"/>
<path opacity="0.4" d="M74.3594 147.802L73.6873 147.681C73.6873 147.635 74.5159 143.147 74.4448 141.244C74.4013 140.088 74.2597 138.937 74.0216 137.805V137.744L73.9078 135.543V135.504C74.114 133.309 75.4014 128.913 77.1085 124.571C78.8546 120.132 83.204 115.865 83.3854 115.68L83.8619 116.167C83.8193 116.209 79.4343 120.513 77.7451 124.813C76.0914 129.02 74.7969 133.423 74.5906 135.536L74.7008 137.67C74.9457 138.841 75.0909 140.03 75.1347 141.226C75.1987 143.196 74.3914 147.617 74.3594 147.802Z" fill="#13334A"/>
<path opacity="0.4" d="M74.5159 137.218L74.1852 136.624C74.8552 136.195 75.4652 135.678 75.9989 135.088C76.9804 134.06 77.2436 132.872 77.5779 131.371L77.6348 131.122C77.9947 129.736 78.434 128.371 78.9507 127.036L77.3041 125.851L77.7024 125.296L79.7757 126.787L79.6797 127.036C79.141 128.421 78.6792 129.835 78.2963 131.271L78.2429 131.52C77.8873 133.06 77.6028 134.394 76.4897 135.557C75.9128 136.2 75.2484 136.76 74.5159 137.218Z" fill="#13334A"/>
<path opacity="0.4" d="M79.637 127.117L79.0929 126.705C80.5617 124.749 84.0967 124.069 84.246 124.045L84.374 124.713C84.3385 124.72 80.9493 125.371 79.637 127.117Z" fill="#13334A"/>
<path opacity="0.4" d="M99.645 84.8623C98.1193 84.8623 96.9493 84.4497 96.1598 83.6389C95.4913 82.923 95.1266 81.9757 95.1427 80.9964V80.8897L96.3269 79.3532L96.8675 79.7694L95.8184 81.1315C95.8386 81.8888 96.133 82.6129 96.647 83.1694C97.3156 83.8523 98.3434 84.1866 99.7161 84.1794L103.795 79.9863L104.286 80.4629L100.018 84.8552H99.645V84.8623Z" fill="#13334A"/>
<path opacity="0.4" d="M87.4859 105.814C84.9964 101.087 81.2978 100.095 81.2623 100.084L81.4294 99.4227C81.593 99.4618 85.4481 100.49 88.0904 105.494L87.4859 105.814Z" fill="#13334A"/>
<path opacity="0.4" d="M87.2974 102.951C87.037 102.3 86.7092 101.677 86.3194 101.094C85.8784 100.472 84.4203 99.7819 83.894 99.5685L84.15 98.9355C84.3634 99.0208 86.2412 99.8033 86.8777 100.714C87.3042 101.342 87.6619 102.015 87.9446 102.72L87.2974 102.951Z" fill="#13334A"/>
<path opacity="0.4" d="M85.2881 105.355C83.2467 105.191 80.9351 102.698 80.8355 102.592L81.3405 102.129C81.3619 102.154 83.5668 104.533 85.3414 104.672L85.2881 105.355Z" fill="#13334A"/>
<path opacity="0.4" d="M50.1443 121.477L49.5824 121.089C50.0354 120.5 50.5388 119.951 51.0868 119.45C51.3789 119.166 51.6097 118.826 51.7651 118.45C51.9205 118.073 51.997 117.669 51.9901 117.262L52.6693 117.209C52.6841 117.716 52.593 118.22 52.4019 118.69C52.2109 119.159 51.9241 119.584 51.5598 119.937C51.0466 120.411 50.5733 120.926 50.1443 121.477Z" fill="#13334A"/>
<path opacity="0.4" d="M64.9031 127.299L64.5831 126.698C65.6251 126.143 65.4188 124.233 65.4153 124.208L66.0945 124.126C66.1052 124.233 66.3577 126.523 64.9031 127.299Z" fill="#13334A"/>
<path opacity="0.4" d="M53.402 184.872C51.6487 184.872 48.0461 184.161 47.8754 184.114L48.0105 183.446C49.305 183.709 52.8756 184.345 53.8678 184.157L53.9923 184.829C53.7971 184.86 53.5996 184.875 53.402 184.872Z" fill="#13334A"/>
<path opacity="0.4" d="M33.8778 228.532L33.2483 228.272C33.9596 226.561 50.7312 186.405 54.0955 184.146C57.346 181.963 63.719 175.931 67.382 171.119C69.1353 168.821 72.1795 165.339 75.1241 161.975C78.3249 158.315 81.3513 154.862 81.9096 153.816C82.1088 153.439 82.3613 152.984 82.6209 152.483C83.7874 150.349 85.5478 147.166 85.939 145.526C86.4297 143.467 88.6845 138.434 90.171 136.076C91.5651 133.871 92.9058 129.518 92.9272 127.754C92.9485 125.99 90.331 123.056 89.7834 122.953C89.1041 122.842 87.6887 121.644 85.6189 119.752L85.1423 119.314C84.2106 118.482 83.3357 116.167 83.2966 116.067L83.1935 115.79L83.4531 115.648C83.4531 115.648 83.8407 115.399 84.8081 114.15C85.875 112.767 90.0892 105.995 91.2095 103.922C91.7145 102.983 93.9123 99.9064 96.4551 96.3428C99.6558 91.8722 103.262 86.8077 103.863 85.4811C104.88 83.2476 103.742 80.3846 103.731 80.3562L103.674 80.2139L103.742 80.0788C103.742 80.0788 103.962 79.5026 103.386 78.1547C102.942 77.0877 101.8 76.7925 99.9829 77.23C98.9872 77.4718 97.5753 79.0082 97.1165 79.5844L97.0881 79.6662L97.0098 79.6982C95.9643 80.1499 93.0765 83.9091 91.3482 86.1533C90.7365 86.9464 90.2101 87.6328 89.858 88.0596C88.4355 89.7774 76.2444 102.883 75.7252 103.442L75.334 103.858L75.1526 103.317C74.7949 102.266 74.3635 101.242 73.8616 100.251C73.3175 99.2662 71.4398 98.8892 69.1851 99.3089C67.0264 99.7108 60.5716 104.501 60.5076 104.551L60.4258 104.612H60.3227C60.3227 104.612 59.1455 104.704 55.9697 105.86C52.7939 107.016 48.7504 109.655 48.7077 109.68L48.6259 109.733H48.5263C48.5014 109.733 46.0369 109.79 41.7693 111.867C37.1105 114.122 25.4884 120.947 23.7991 123.749C22.8211 125.371 22.878 136.386 22.9314 146.102C22.9705 153.71 23.0096 160.897 22.6042 164.105C21.6582 171.574 1.64668 207.737 0.796714 209.273L0.199249 208.939C0.405517 208.565 21.0003 171.364 21.9249 164.02C22.3268 160.855 22.2805 153.706 22.2485 146.106C22.1916 135.347 22.1383 125.183 23.2159 123.397C25.0474 120.356 36.9931 113.421 41.4705 111.255C45.4714 109.321 47.9039 109.086 48.4267 109.057C49.0277 108.666 52.6766 106.34 55.7528 105.22C58.5445 104.203 59.8283 103.986 60.1875 103.943C60.9628 103.37 66.8663 99.0457 69.0784 98.6332C71.6603 98.153 73.7799 98.6581 74.4769 99.9171C74.9222 100.769 75.306 101.653 75.6256 102.56C77.7594 100.266 88.0728 89.155 89.3495 87.6222C89.7051 87.206 90.2172 86.5267 90.8254 85.7372C93.2579 82.5754 95.534 79.6911 96.6791 79.1114C96.9849 78.7557 98.5568 76.8992 99.8798 76.5827C102.608 75.9247 103.664 76.9383 104.073 77.9057C104.61 79.1861 104.535 79.9258 104.457 80.2352C104.677 80.8363 105.556 83.5215 104.531 85.7763C103.902 87.1634 100.264 92.2599 97.0632 96.7553C94.6378 100.152 92.351 103.36 91.8638 104.26C90.6867 106.34 86.4191 113.165 85.3522 114.563C84.9577 115.099 84.5161 115.599 84.0328 116.057C84.3351 116.807 85.0001 118.269 85.6011 118.802L86.0848 119.243C86.9596 120.047 89.2855 122.177 89.8972 122.281C90.9961 122.462 93.6527 125.837 93.6278 127.765C93.6029 129.628 92.2515 134.088 90.7827 136.443C89.3602 138.708 87.1054 143.716 86.636 145.69C86.2235 147.422 84.5022 150.541 83.2539 152.803C82.9765 153.304 82.7276 153.756 82.5427 154.129C81.9488 155.239 79.0397 158.564 75.6718 162.416C72.7343 165.773 69.6972 169.244 67.9581 171.528C64.1422 176.532 57.8083 182.489 54.5081 184.705C51.9226 186.43 39.8844 214.128 33.8778 228.532Z" fill="#13334A"/>
</g>
<path d="M99.7019 89.4858L99.1933 89.0305C99.2787 88.9345 108.002 79.3639 122.093 78.361L122.139 79.0402C108.333 80.0219 99.7872 89.3898 99.7019 89.4858Z" fill="#13334A"/>
<path d="M95.6654 89.1266L95.1 88.7425C95.1747 88.6358 102.522 77.9769 116.346 75.0854L116.488 75.754C102.924 78.5992 95.7188 89.0199 95.6654 89.1266Z" fill="#13334A"/>
<path d="M118.999 105.231C118.999 105.231 131.52 97.2746 134.145 94.6427C134.145 94.6427 131.076 102.065 125.948 105.231L120.823 108.396L118.999 105.231Z" fill="#CCCCCC"/>
<path d="M100.602 112.233C100.602 112.233 97.5645 112.909 98.2331 111.437C98.9017 109.964 100.488 108.303 104.048 105.654C107.608 103.004 112.963 100.319 114.165 99.252C115.368 98.185 118.999 95.8519 118.999 95.8519C118.999 95.8519 114.091 101.83 110.78 103.676C107.469 105.522 103.251 107.969 101.928 110.078L100.602 112.233Z" fill="#CCCCCC"/>
<path d="M90.9035 113.599H87.7775C87.7775 113.599 95.5801 104.797 100.488 102.958C105.396 101.119 107.401 100.792 107.401 100.792C107.401 100.792 98.1549 105.92 90.9035 113.599Z" fill="#CCCCCC"/>
<path d="M149.572 114.584C149.572 114.584 142.253 114.627 138.26 118.322L136.208 116.843C136.208 116.843 138.612 111.903 139.615 110.672C140.618 109.441 142.531 107.357 142.531 107.357C142.531 107.357 147.09 114.253 149.572 114.584Z" fill="#CCCCCC"/>
<path d="M136.208 125.304C136.709 123.379 138.299 132.996 132.936 139.153C132.936 139.153 133.825 134.255 133.7 132.644C133.576 131.033 133.747 127.985 133.747 127.985C133.747 127.985 135.713 127.146 136.208 125.304Z" fill="#CCCCCC"/>
<path d="M158.766 75.9283L162.944 71.6356C162.944 71.6356 163.705 66.4217 157.948 68.1075L154.391 72.4251C154.391 72.4251 154.039 76.4653 158.766 75.9283Z" fill="#CCCCCC"/>
<path d="M140.23 91.1645C140.23 91.1645 140.941 89.5854 142.918 90.6666C144.896 91.7477 146.784 92.267 146.67 97.0683C146.67 97.0647 139.383 96.8691 140.23 91.1645Z" fill="#CCCCCC"/>
<path d="M124.155 113.599C124.155 113.599 126.289 115.733 123.64 118.411L124.155 113.599Z" fill="#CCCCCC"/>
<path d="M111.445 107.357C111.445 107.357 113.223 111.12 109.976 112.233C108.009 112.909 111.445 107.357 111.445 107.357Z" fill="#CCCCCC"/>
<path d="M112.825 176.165C112.825 176.165 109.919 180.857 108.739 183.257L107.401 175.195C107.401 175.195 111.249 177.378 112.825 176.165Z" fill="#CCCCCC"/>
<path d="M162.606 69.4305C161.948 67.8692 160.142 67.9866 158.808 68.3066C157.475 68.6267 155.768 70.7749 155.768 70.7749C154.277 71.4186 149.921 77.5003 148.484 79.2323C147.047 80.9643 134.365 94.5965 134.365 94.5965C134.003 93.5267 133.565 92.4843 133.053 91.4774C132.392 90.2824 130.279 89.9446 128.014 90.3642C125.748 90.7839 119.183 95.6706 119.183 95.6706C119.183 95.6706 118.024 95.7417 114.735 96.9367C111.445 98.1317 107.401 100.792 107.401 100.792C107.401 100.792 104.912 100.817 100.488 102.958C96.0637 105.099 84.1643 112.002 82.3754 114.968C80.5866 117.934 82.0767 147.962 81.1307 155.459C80.1847 162.957 59.3659 200.503 59.3659 200.503C54.2626 232.867 92.4576 219.815 92.4576 219.815C92.4576 219.815 109.862 178.072 113.18 175.842C116.498 173.612 122.843 167.601 126.549 162.74C130.254 157.878 140.02 147.422 141.105 145.387C142.189 143.353 144.69 139.085 145.18 137.015C145.671 134.945 147.944 129.913 149.366 127.679C150.789 125.446 152.151 121.011 152.176 119.179C152.201 117.348 149.562 114.175 148.73 114.036C147.897 113.898 145.138 111.266 144.259 110.48C143.381 109.694 142.509 107.368 142.509 107.368C142.509 107.368 142.908 107.147 143.971 105.778C145.034 104.409 149.259 97.6195 150.401 95.5034C151.543 93.3873 161.977 79.4386 163.065 77.0415C164.153 74.6444 162.941 71.6462 162.941 71.6462C162.941 71.6462 163.261 70.9918 162.606 69.4305ZM136.819 122.778C136.567 123.778 136.485 125.108 135.912 125.766C135.231 126.554 134.502 127.3 133.729 127.999C133.576 128.132 133.388 128.218 133.188 128.248C133.172 126.591 133.412 124.942 133.9 123.358C134.714 120.648 136.201 116.857 136.201 116.857L138.235 118.343C138.235 118.343 137.072 121.765 136.819 122.764V122.778Z" fill="#E6E6E6"/>
<path d="M100.925 112.386L100.282 112.08C101.101 110.467 102.205 109.014 103.539 107.791C104.908 106.568 106.662 105.522 108.205 104.59C109.041 104.092 109.83 103.623 110.481 103.168C112.316 101.898 118.686 95.6457 118.75 95.5853L119.248 96.0903C118.984 96.3499 112.768 102.449 110.887 103.755C110.214 104.217 109.414 104.694 108.571 105.199C107.053 106.105 105.332 107.13 104.016 108.307C102.752 109.473 101.706 110.854 100.925 112.386Z" fill="#3A4860"/>
<path d="M91.2556 113.645L90.5443 113.556C90.7328 112.031 94.3603 109.267 97.8846 106.767L98.1478 106.578C99.9259 105.302 107.128 100.532 107.199 100.497L107.59 101.091C107.519 101.137 100.342 105.888 98.5603 107.158L98.2936 107.347C96.6043 108.552 91.4334 112.226 91.2556 113.645Z" fill="#3A4860"/>
<path d="M120.887 108.744L120.755 108.033C121.708 107.859 122.911 106.835 124.312 105.65C124.735 105.295 125.179 104.914 125.649 104.533C127.687 102.873 133.8 94.5041 133.864 94.4223L134.43 94.8526C134.177 95.2083 128.199 103.388 126.09 105.095C125.624 105.476 125.183 105.849 124.767 106.205C123.234 107.507 122.025 108.531 120.887 108.744Z" fill="#3A4860"/>
<path d="M133.267 139.217L132.555 139.089C132.555 139.046 133.384 134.558 133.316 132.658C133.273 131.502 133.13 130.351 132.89 129.219V129.155L132.776 126.954V126.929C132.982 124.731 134.27 120.335 135.977 115.993C137.723 111.551 142.072 107.283 142.257 107.101L142.755 107.61C142.709 107.653 138.327 111.956 136.638 116.252C134.984 120.456 133.693 124.855 133.484 126.972L133.594 129.088C133.84 130.259 133.986 131.448 134.031 132.644C134.109 134.611 133.302 139.032 133.267 139.217Z" fill="#3A4860"/>
<path d="M133.416 128.643L133.06 128.021C133.731 127.594 134.341 127.08 134.874 126.491C135.852 125.464 136.115 124.279 136.449 122.778L136.506 122.529C136.867 121.146 137.305 119.784 137.819 118.45L136.183 117.273L136.599 116.697L138.679 118.194L138.583 118.45C138.047 119.84 137.589 121.259 137.211 122.7L137.154 122.949C136.798 124.493 136.514 125.826 135.4 126.996C134.819 127.635 134.151 128.189 133.416 128.643Z" fill="#3A4860"/>
<path d="M138.544 118.536L137.975 118.109C139.451 116.149 142.99 115.47 143.139 115.441L143.271 116.153C143.235 116.146 139.853 116.796 138.544 118.536Z" fill="#3A4860"/>
<path d="M158.538 76.2875C157.009 76.2875 155.835 75.875 155.046 75.0605C154.375 74.3416 154.009 73.3905 154.025 72.4073V72.2971L155.213 70.7571L155.775 71.191L154.736 72.5532C154.756 73.3055 155.05 74.0249 155.561 74.5768C156.226 75.2526 157.247 75.5869 158.613 75.5798L162.688 71.3937L163.197 71.8881L158.929 76.284H158.549L158.538 76.2875Z" fill="#3A4860"/>
<path d="M146.357 97.2319C143.868 92.5124 140.18 91.5201 140.141 91.5094L140.315 90.8195C140.479 90.8622 144.341 91.8864 146.987 96.9011L146.357 97.2319Z" fill="#3A4860"/>
<path d="M146.165 94.3689C145.905 93.7177 145.577 93.0955 145.187 92.5124C144.75 91.8936 143.295 91.2071 142.769 90.9938L143.036 90.3358C143.249 90.4211 145.131 91.2036 145.771 92.1141C146.197 92.744 146.554 93.4177 146.838 94.1235L146.165 94.3689Z" fill="#3A4860"/>
<path d="M144.181 96.7802C142.136 96.6202 139.821 94.1199 139.721 94.0132L140.244 93.5331C140.269 93.558 142.47 95.9338 144.238 96.0725L144.181 96.7802Z" fill="#3A4860"/>
<path d="M109.034 112.895L108.447 112.493C108.9 111.903 109.404 111.353 109.951 110.85C110.242 110.569 110.472 110.231 110.627 109.857C110.782 109.483 110.858 109.081 110.851 108.677L111.562 108.62C111.576 109.129 111.484 109.634 111.293 110.106C111.101 110.577 110.814 111.004 110.449 111.358C109.938 111.833 109.465 112.347 109.034 112.895Z" fill="#3A4860"/>
<path d="M123.807 118.724L123.472 118.098C124.504 117.547 124.298 115.648 124.298 115.63L125.009 115.544C125.016 115.644 125.268 117.945 123.807 118.724Z" fill="#3A4860"/>
<path d="M112.288 176.301C110.581 176.301 107.199 175.628 106.768 175.543L106.907 174.832C108.202 175.091 111.772 175.732 112.761 175.543L112.892 176.254C112.692 176.287 112.49 176.302 112.288 176.301Z" fill="#3A4860"/>
<path d="M92.7848 219.95L92.1304 219.676C92.8417 217.969 109.613 177.809 112.981 175.547C116.232 173.366 122.601 167.331 126.268 162.523C128.017 160.225 131.062 156.743 134.006 153.379C137.207 149.719 140.237 146.266 140.792 145.22C140.991 144.843 141.243 144.391 141.503 143.89C142.67 141.756 144.43 138.573 144.821 136.933C145.312 134.874 147.567 129.842 149.057 127.484C150.447 125.279 151.784 120.929 151.809 119.165C151.831 117.458 149.299 114.488 148.662 114.381C148.025 114.275 146.564 113.069 144.494 111.181L144.032 110.736C143.096 109.9 142.221 107.578 142.182 107.482L142.076 107.194L142.346 107.044C142.346 107.044 142.73 106.792 143.697 105.547C144.764 104.167 148.975 97.399 150.099 95.322C150.607 94.3831 152.802 91.3067 155.344 87.7431C158.545 83.2725 162.151 78.208 162.752 76.8814C163.766 74.6551 162.631 71.7992 162.621 71.7707L162.56 71.6213L162.631 71.4791C162.631 71.4791 162.848 70.9065 162.276 69.5692C161.835 68.5272 160.697 68.2177 158.89 68.6552C157.898 68.8935 156.489 70.4335 156.045 71.0025L155.988 71.0701L155.91 71.1056C154.864 71.5573 151.976 75.313 150.252 77.5572C149.64 78.3503 149.114 79.0367 148.758 79.4635C147.335 81.1813 135.144 94.2871 134.625 94.8455L134.22 95.2794L134.028 94.7174C133.674 93.6654 133.244 92.6407 132.74 91.6517C132.2 90.6737 130.329 90.3002 128.081 90.7163C125.923 91.1182 119.472 95.9089 119.408 95.9551L119.322 96.0191H119.215C119.215 96.0191 118.038 96.1116 114.87 97.2639C111.701 98.4162 107.647 101.055 107.608 101.084L107.522 101.141H107.401C107.38 101.141 104.912 101.197 100.644 103.274C95.9855 105.529 84.3705 112.351 82.6848 115.15C81.7068 116.771 81.7637 127.782 81.8135 137.495C81.8562 145.106 81.8918 152.29 81.4899 155.502C80.5439 162.971 60.5288 199.137 59.6789 200.67L59.0565 200.314C59.2663 199.959 79.854 162.74 80.7822 155.399C81.1805 152.234 81.1378 145.085 81.1022 137.485C81.0489 126.726 80.992 116.562 82.0731 114.769C83.9082 111.728 95.8539 104.79 100.335 102.62C104.329 100.689 106.761 100.454 107.295 100.422C107.903 100.027 111.562 97.7049 114.617 96.5846C117.398 95.5746 118.689 95.3541 119.055 95.3078C119.841 94.7281 125.734 90.4105 127.946 90.0015C130.535 89.5178 132.658 90.0228 133.359 91.2889C133.801 92.1359 134.182 93.013 134.501 93.9137C136.67 91.5806 146.948 80.5233 148.207 78.9762C148.562 78.5601 149.078 77.8808 149.683 77.0913C152.115 73.9295 154.391 71.0452 155.54 70.4619C155.849 70.0849 157.421 68.2462 158.741 67.9297C161.475 67.2717 162.539 68.2853 162.948 69.2598C163.485 70.5402 163.414 71.2835 163.335 71.5964C163.559 72.2046 164.431 74.8898 163.407 77.1446C162.777 78.5317 159.295 83.4077 155.938 88.1236C153.516 91.5201 151.226 94.7281 150.739 95.6279C149.608 97.7191 145.362 104.555 144.277 105.942C143.883 106.475 143.443 106.973 142.961 107.428C143.263 108.179 143.928 109.63 144.522 110.163L145.01 110.604C145.884 111.408 148.21 113.535 148.811 113.638C149.917 113.82 152.581 117.195 152.556 119.133C152.531 121 151.176 125.464 149.693 127.818C148.271 130.084 146.016 135.091 145.55 137.065C145.138 138.801 143.416 141.92 142.165 144.199C141.887 144.697 141.642 145.149 141.453 145.522C140.859 146.636 137.95 149.961 134.579 153.816C131.641 157.174 128.604 160.641 126.869 162.921C123.053 167.929 116.715 173.889 113.415 176.105C110.73 177.915 97.6143 208.366 92.7848 219.95Z" fill="#3A4860"/>
</g>
<defs>
<clipPath id="clip0">
<rect width="255" height="231" fill="white"/>
</clipPath>
</defs>
</svg>
