<svg width="68" height="72" viewBox="0 0 68 72" fill="none" xmlns="http://www.w3.org/2000/svg">
<path d="M11.4854 27.0035C10.5146 26.7069 10.5151 25.2827 11.4861 24.9867C24.79 20.9317 28.9326 16.7896 32.9965 3.48544C33.2931 2.51463 34.7173 2.51508 35.0133 3.48608C39.0682 16.7898 43.2102 20.9318 56.5139 24.9867C57.4849 25.2827 57.4854 26.7069 56.5146 27.0035C43.2104 31.0674 39.0683 35.21 35.0133 48.5139C34.7173 49.4849 33.2931 49.4854 32.9965 48.5146C28.9326 35.2101 24.7899 31.0674 11.4854 27.0035Z" fill="#007AFF"/>
<path d="M45.7426 48.5043C45.2577 48.3546 45.2579 47.6407 45.743 47.4913C51.7328 45.6463 53.6468 43.7326 55.4957 37.7426C55.6454 37.2577 56.3593 37.2579 56.5087 37.743C58.3537 43.7326 60.2674 45.6463 66.257 47.4913C66.7421 47.6407 66.7423 48.3546 66.2574 48.5043C60.2674 50.3532 58.3537 52.2672 56.5087 58.257C56.3593 58.7421 55.6454 58.7423 55.4957 58.2574C53.6467 52.2673 51.7327 50.3533 45.7426 48.5043Z" fill="#EBF02C"/>
<path d="M1.74393 56.4964C1.25762 56.3511 1.25784 55.6423 1.74424 55.4973C10.3851 52.9216 12.9221 50.3849 15.5036 41.7439C15.6489 41.2576 16.3577 41.2578 16.5027 41.7442C19.0784 50.385 21.615 52.9216 30.2558 55.4973C30.7422 55.6423 30.7424 56.3511 30.2561 56.4964C21.6151 59.0779 19.0784 61.6149 16.5027 70.2558C16.3577 70.7422 15.6489 70.7424 15.5036 70.2561C12.9221 61.6149 10.3851 59.078 1.74393 56.4964Z" fill="#000928"/>
</svg>
