<svg width="120" height="48" viewBox="0 0 120 48" fill="none" xmlns="http://www.w3.org/2000/svg">
<g clip-path="url(#clip0_2638_89287)">
<path d="M90.8183 39.2448C90.6524 39.2041 90.4738 39.1822 90.3143 39.1854C89.8964 39.1854 89.5583 39.2824 89.3031 39.4797C89.1436 39.6081 89.0096 39.7584 88.9076 39.9306V39.2448H87.1914V45.0002H88.9682V41.4055C89.1181 41.1957 89.3191 41.0297 89.5583 40.9232C89.8135 40.8042 90.1389 40.7447 90.528 40.7447H90.8789V39.2574L90.8183 39.2417V39.2448Z" fill="#04295E"/>
<path d="M97.5982 44.2048L94.5742 37.1813H93.748V44.9845H94.3924V38.1739L97.3016 44.9845H97.8917L100.772 38.1802V44.9845H101.413V37.1813H100.587L97.5982 44.2048Z" fill="#04295E"/>
<path d="M62.7354 41.0234C63.0608 40.6383 63.2267 40.1623 63.2267 39.6018C63.2362 39.2323 63.1437 38.866 62.9651 38.5403C62.7928 38.2366 62.544 37.9767 62.2506 37.7825C61.9188 37.5696 61.5552 37.4193 61.1692 37.3348C60.7226 37.2345 60.2665 37.1844 59.8103 37.1907H57.3828V44.9971H59.1947V42.204H59.6062L61.8805 44.9971H64.1454L61.4531 41.8626C62.0018 41.6622 62.4324 41.3804 62.7354 41.0234ZM61.4148 39.6331C61.4148 40.0308 61.2585 40.3189 60.9331 40.5224C60.6014 40.7291 60.1548 40.8324 59.6093 40.8324H59.1947V38.5998H59.7976C60.2824 38.5998 60.6843 38.6843 60.9842 38.8534C61.2745 39.0163 61.4148 39.273 61.4148 39.6363V39.6331Z" fill="#04295E"/>
<path d="M119.706 41.0954C119.7 40.9389 119.677 40.776 119.639 40.6069C119.601 40.4378 119.537 40.2656 119.451 40.0997C119.362 39.9306 119.24 39.7771 119.087 39.6425C118.934 39.5078 118.733 39.3983 118.494 39.3168C118.255 39.2354 117.964 39.1947 117.626 39.1947C117.4 39.1947 117.177 39.226 116.956 39.2824C116.736 39.3419 116.532 39.4296 116.347 39.5486C116.162 39.6675 115.996 39.8116 115.856 39.9775C115.783 40.0652 115.719 40.1592 115.661 40.2594V37.1813H115.084V44.9845H115.661V41.9284C115.661 41.6027 115.706 41.299 115.795 41.0265C115.885 40.7541 116.012 40.5193 116.181 40.3251C116.35 40.131 116.555 39.9775 116.791 39.868C117.03 39.7584 117.304 39.7051 117.614 39.7051C117.977 39.7051 118.264 39.7709 118.465 39.8961C118.669 40.0245 118.823 40.178 118.921 40.3564C119.023 40.5349 119.084 40.7259 119.103 40.9201C119.126 41.1236 119.135 41.2927 119.135 41.4274V44.9877H119.712V41.5025C119.712 41.3866 119.709 41.252 119.7 41.0986L119.706 41.0954Z" fill="#04295E"/>
<path d="M113.161 42.1695C112.976 42.0474 112.752 41.9503 112.5 41.8814C112.252 41.8125 111.984 41.753 111.709 41.7029C111.483 41.6528 111.256 41.6027 111.033 41.5526C110.816 41.5057 110.618 41.4399 110.443 41.3585C110.277 41.2833 110.14 41.18 110.038 41.0548C109.939 40.9358 109.891 40.7698 109.891 40.5694C109.891 40.394 109.936 40.2437 110.025 40.1216C110.118 39.9964 110.236 39.893 110.379 39.8116C110.526 39.7302 110.692 39.6738 110.877 39.6394C111.298 39.5611 111.719 39.5705 112.076 39.6644C112.271 39.7145 112.44 39.7928 112.58 39.8993C112.717 40.0026 112.829 40.1373 112.909 40.3032C112.988 40.4723 113.027 40.6759 113.027 40.9138V40.9921H113.604V40.9138C113.604 40.5882 113.547 40.3064 113.438 40.0778C113.327 39.8461 113.17 39.6519 112.976 39.5048C112.781 39.3576 112.548 39.248 112.28 39.1791C111.802 39.0601 111.24 39.0476 110.695 39.1509C110.446 39.1979 110.216 39.2793 110.019 39.3889C109.815 39.5016 109.645 39.6551 109.515 39.8461C109.381 40.0402 109.314 40.2844 109.314 40.5694C109.314 40.9671 109.419 41.2771 109.62 41.4837C109.818 41.6873 110.07 41.847 110.37 41.9597C110.663 42.0693 110.982 42.1507 111.32 42.2039C111.649 42.2572 111.958 42.3261 112.245 42.4106C112.523 42.492 112.756 42.611 112.937 42.7613C113.11 42.9054 113.196 43.112 113.196 43.397C113.196 43.613 113.142 43.7947 113.036 43.9324C112.928 44.0765 112.788 44.1892 112.622 44.2675C112.449 44.3489 112.261 44.4053 112.06 44.4366C111.575 44.5117 111.157 44.4992 110.797 44.3802C110.59 44.3113 110.405 44.2111 110.248 44.0796C110.092 43.9481 109.964 43.7853 109.866 43.6005C109.77 43.4158 109.712 43.1966 109.7 42.9523V42.8772H109.119V42.9586C109.129 43.2905 109.193 43.5849 109.317 43.8354C109.438 44.0859 109.607 44.3051 109.821 44.4773C110.035 44.6495 110.287 44.781 110.567 44.8656C110.848 44.9501 111.157 44.9908 111.486 44.9908C111.738 44.9908 112 44.9658 112.264 44.9188C112.532 44.8718 112.778 44.7842 112.998 44.6652C113.218 44.543 113.406 44.3771 113.55 44.1767C113.697 43.97 113.773 43.707 113.773 43.3939C113.773 43.0964 113.719 42.8459 113.61 42.6486C113.502 42.4513 113.352 42.2885 113.161 42.1664V42.1695Z" fill="#04295E"/>
<path d="M107.259 39.9055C107.049 39.6519 106.781 39.4484 106.468 39.3012C106.155 39.154 105.789 39.0789 105.383 39.0789C104.94 39.0789 104.551 39.1634 104.219 39.3294C103.891 39.4953 103.613 39.7176 103.396 39.9932C103.179 40.2656 103.013 40.5882 102.905 40.9514C102.796 41.3115 102.742 41.6904 102.742 42.0818C102.742 42.4732 102.796 42.8709 102.898 43.2216C103.004 43.5786 103.166 43.8886 103.38 44.1485C103.597 44.4115 103.868 44.6182 104.187 44.7685C104.509 44.9188 104.889 44.997 105.316 44.997C106.015 44.997 106.583 44.8186 107.01 44.4647C107.438 44.1109 107.718 43.5973 107.846 42.9429L107.865 42.849H107.288L107.272 42.9085C107.151 43.4032 106.931 43.7946 106.615 44.0733C106.302 44.3489 105.865 44.4866 105.323 44.4866C104.991 44.4866 104.698 44.424 104.449 44.3019C104.2 44.1798 103.989 44.0107 103.827 43.8009C103.661 43.588 103.533 43.3374 103.447 43.0556C103.364 42.7769 103.32 42.4795 103.32 42.1695H107.891V42.0912C107.891 42.063 107.891 42.0286 107.897 41.9847C107.9 41.9378 107.903 41.8939 107.903 41.8563C107.903 41.4774 107.849 41.1205 107.741 40.7886C107.632 40.4566 107.47 40.1592 107.259 39.9055ZM103.339 41.6591C103.364 41.4117 103.418 41.1643 103.505 40.9263C103.597 40.6664 103.728 40.4347 103.897 40.2406C104.066 40.0464 104.273 39.8867 104.522 39.7677C104.768 39.6488 105.055 39.5893 105.38 39.5893C105.68 39.5893 105.954 39.6488 106.187 39.7615C106.423 39.8773 106.624 40.0339 106.79 40.2281C106.956 40.4222 107.08 40.6508 107.167 40.9075C107.243 41.1424 107.294 41.3929 107.313 41.6559H103.342L103.339 41.6591Z" fill="#04295E"/>
<path d="M66.5286 41.7467H69.4506V40.3157H66.5286V38.6217H69.5941V37.1907H64.7168V45.0002H69.6292V43.566H66.5286V41.7467Z" fill="#04295E"/>
<path d="M84.9375 38.2961C84.5068 37.9329 84.0124 37.6573 83.4733 37.4788C82.8577 37.2784 82.2069 37.1782 81.569 37.1876H79.1191V44.9971H81.569C81.5945 44.9971 81.62 44.9971 81.6455 44.9971C82.2675 44.9971 82.8832 44.9001 83.4765 44.7059C84.0156 44.5274 84.51 44.255 84.9439 43.8886C85.349 43.5442 85.6648 43.1277 85.8849 42.6486C86.3251 41.656 86.3251 40.5193 85.8849 39.5267C85.6648 39.0508 85.349 38.6343 84.9439 38.2898L84.9375 38.2961ZM84.1942 42.1351C84.0635 42.4294 83.8657 42.6956 83.6201 42.9085C83.3585 43.1277 83.0618 43.2937 82.7333 43.3939C82.3696 43.5097 81.99 43.5661 81.6041 43.563H80.9278V38.6218H81.6041C81.6041 38.6218 81.6264 38.6218 81.6391 38.6218C82.0124 38.6218 82.3792 38.6781 82.7365 38.7909C83.065 38.8942 83.3617 39.057 83.6232 39.2762C83.8689 39.4891 84.0666 39.7553 84.1974 40.0465C84.4749 40.7197 84.4749 41.4619 84.1974 42.132L84.1942 42.1351Z" fill="#04295E"/>
<path d="M75.2178 37.1907H73.3166L70.2734 45.0002H72.1523L72.7073 43.3907H75.8207L76.3757 45.0002H78.2577L75.2337 37.2408L75.2146 37.1907H75.2178ZM75.3358 41.9565H73.1986L74.2672 38.8002L75.3358 41.9565Z" fill="#04295E"/>
<path d="M48.8976 6.71042V15.8539C48.8976 19.5551 45.9151 22.5643 42.2467 22.5643H32.4538C31.1141 22.5643 29.8222 22.1604 28.7153 21.3963L21.8794 28.2977C22.6736 29.4344 23.0915 30.7652 23.0915 32.1461V41.2896C23.0915 44.9908 20.109 48 16.4406 48H6.65089C2.98254 48 0 44.9908 0 41.2896V32.1461C0 28.4449 2.98254 25.4357 6.65089 25.4357H16.4438C17.8952 25.4357 19.2764 25.9054 20.4407 26.7947L27.2065 19.9653C26.2878 18.7754 25.8061 17.3569 25.8061 15.857V6.71042C25.8061 3.0092 28.7886 0 32.457 0H42.2499C45.9183 0 48.9008 3.0092 48.9008 6.71042H48.8976ZM48.8657 32.1117V41.2551C48.8657 44.9564 45.8832 47.9656 42.2148 47.9656H32.4219C28.7536 47.9656 25.771 44.9564 25.771 41.2551V32.1117C25.771 28.4105 28.7536 25.4013 32.4219 25.4013H42.2148C45.8832 25.4013 48.8657 28.4105 48.8657 32.1117ZM27.5701 32.1117V41.2551C27.5701 43.9575 29.7488 46.1588 32.4251 46.1588H42.218C44.8943 46.1588 47.073 43.9606 47.073 41.2551V32.1117C47.073 29.4094 44.8943 27.208 42.218 27.208H32.4251C29.7488 27.208 27.5701 29.4062 27.5701 32.1117ZM0 15.929V6.78557C0 3.08435 2.98254 0.0751517 6.65089 0.0751517H16.4438C20.1122 0.0751517 23.0947 3.08435 23.0947 6.78557V15.929C23.0947 19.6302 20.1122 22.6394 16.4438 22.6394H6.65089C2.98254 22.6394 0 19.6302 0 15.929ZM6.65089 20.8327H16.4438C19.1201 20.8327 21.2988 18.6345 21.2988 15.929V6.78557C21.2988 4.08324 19.1201 1.88192 16.4438 1.88192H6.65089C3.97459 1.88192 1.7959 4.08011 1.7959 6.78557V15.929C1.7959 18.6314 3.97459 20.8327 6.65089 20.8327Z" fill="#04295E"/>
<path d="M67.2539 14.6421H82.0645V9.70398H67.2539V14.6421ZM77.5763 11.2759H79.9879V13.042H77.5763V11.2759ZM73.4518 11.2759H75.8347V13.042H73.4518V11.2759ZM69.2986 11.2759H71.7389V13.042H69.2986V11.2759Z" fill="#04295E"/>
<path d="M73.6381 7.13628H67.756V8.78961H81.6479V7.13628H75.9061V6.02466H82.5666V4.28991H75.9061V2.86829H73.6381V4.28991H66.8086V6.02466H73.6381V7.13628Z" fill="#04295E"/>
<path d="M57.9746 27.828H65.7356V18.2963H57.9746V27.828ZM60.1342 20.3034H63.5505V25.7645H60.1342V20.3034Z" fill="#04295E"/>
<path d="M83.0041 26.6538C81.508 25.9649 79.8907 25.3606 78.1746 24.8439H81.1731V15.5032H68.1456V24.8439H71.546C70.0914 25.5015 68.3115 26.0495 66.2381 26.4753L66.0371 26.516L66.9367 28.3165L67.0611 28.2852C69.6959 27.6402 71.814 26.873 73.5365 25.9461L73.7088 25.8522L72.8315 24.8408H76.5318L75.7981 25.896L76.0087 25.9555C77.9896 26.516 79.929 27.2801 81.945 28.2977L82.0726 28.3635L83.1731 26.729L83.0073 26.6507L83.0041 26.6538ZM70.3052 17.0751H78.9593V18.1836H70.3052V17.0751ZM70.3052 19.5927H78.9593V20.6479H70.3052V19.5927ZM70.3052 23.1906V22.0821H78.9593V23.1906H70.3052Z" fill="#04295E"/>
<path d="M65.5954 14.2756H58.1406V16.2859H65.5954V14.2756Z" fill="#04295E"/>
<path d="M66.3489 6.34089H64.8401H63.2356V3.01855H60.9708V6.34089H60.8655H57.3822H57.2227V8.46079H66.3489V6.34089Z" fill="#04295E"/>
<path d="M65.5954 10.446H58.1406V12.4564H65.5954V10.446Z" fill="#04295E"/>
<path d="M104.213 11.8991H110.325V10.0547H105.11C104.43 10.0547 104.344 9.7447 104.344 9.47228V8.26672H109.834V3.07812H102.264V10.2395C102.264 11.3417 102.921 11.8991 104.216 11.8991H104.213ZM104.344 6.53823V4.86611H107.751V6.53823H104.344ZM94.5351 6.05288V3.82964H99.524V6.05288H94.5351ZM112.893 11.9022H119.005V10.0578H113.789C113.11 10.0578 113.024 9.74784 113.024 9.47541V8.26985H118.513V3.07812H110.944V10.2395C110.944 11.3417 111.601 11.8991 112.896 11.8991L112.893 11.9022ZM113.024 6.54136V4.86924H116.43V6.54136H113.024ZM120 25.7645L119.464 28.041H112.172C110.003 28.041 108.057 28.0128 106.389 27.9565C104.414 27.9001 102.877 27.6371 101.821 27.1768C100.596 26.6914 99.5113 25.9461 98.5065 24.9003C98.2864 24.6842 98.0535 24.6373 97.9004 24.6373C97.4538 24.6373 96.583 25.2635 94.9785 28.2414L94.8828 28.4199L93.1953 26.8949L93.2559 26.7885C94.5957 24.3586 95.8397 22.9777 97.0614 22.5675C97.6229 21.1615 98.0631 19.599 98.4076 17.8016H94.2512V16.0543L94.2894 16.0105C95.6324 14.4793 96.752 12.9919 97.709 11.4763H93.5877V9.34703H100.408V11.1068L100.385 11.1444C99.457 12.7226 98.3884 14.2444 97.1157 15.7881H100.695V17.2787C100.274 19.6522 99.8143 21.4809 99.2848 22.8868C99.4953 23.0246 99.725 23.2062 99.977 23.4286C100.841 24.249 101.757 24.8784 102.711 25.3042C103.604 25.6612 104.889 25.8585 106.519 25.8867H106.523C107.25 25.8867 108.035 25.8929 108.87 25.8992C109.824 25.9054 110.842 25.9148 111.92 25.9148C114.086 25.9148 116.989 25.8459 119.802 25.7739L120.009 25.7677L120 25.7645ZM107.534 20.4162C106.105 21.5373 104.299 22.5518 102.168 23.4286L101.977 23.5069L103.304 25.2134L103.419 25.1633C105.598 24.2083 107.476 23.0622 109.004 21.7627L109.142 21.6468L107.722 20.4131H112.724L111.63 21.9756L111.815 22.0477C113.866 22.8524 115.837 23.9515 117.671 25.3168L117.808 25.4201L118.995 23.6196L118.867 23.5319C117.113 22.3295 115.167 21.3087 112.928 20.4131H119.426V18.3433H114.832V16.1044H118.561V14.0597H114.832V12.2435H112.634V14.0597H108.274V12.2435H106.105V14.0597H102.261V16.1044H106.105V18.3433H101.511V20.4131H107.531L107.524 20.4194L107.534 20.4162ZM108.283 18.3402V16.1013H112.644V18.3402H108.283Z" fill="#04295E"/>
</g>
<defs>
<clipPath id="clip0_2638_89287">
<rect width="120" height="48" fill="white"/>
</clipPath>
</defs>
</svg>
