<svg width="32" height="32" viewBox="0 0 32 32" fill="none" xmlns="http://www.w3.org/2000/svg">
<path d="M31.9979 4.47361V10.5692C31.9979 13.0367 30.0462 15.0429 27.6457 15.0429H21.2373C20.3606 15.0429 19.5152 14.7736 18.7909 14.2642L14.3175 18.8652C14.8373 19.6229 15.1108 20.5101 15.1108 21.4308V27.5264C15.1108 29.9939 13.159 32 10.7585 32H4.35225C1.95173 32 0 29.9939 0 27.5264V21.4308C0 18.9633 1.95173 16.9571 4.35225 16.9571H10.7606C11.7104 16.9571 12.6142 17.2703 13.3761 17.8631L17.8035 13.3102C17.2023 12.5169 16.8871 11.5713 16.8871 10.5713V4.47361C16.8871 2.00613 18.8389 0 21.2394 0H27.6477C30.0483 0 32 2.00613 32 4.47361H31.9979ZM31.977 21.4078V27.5034C31.977 29.9709 30.0253 31.977 27.6248 31.977H21.2164C18.8159 31.977 16.8642 29.9709 16.8642 27.5034V21.4078C16.8642 18.9403 18.8159 16.9342 21.2164 16.9342H27.6248C30.0253 16.9342 31.977 18.9403 31.977 21.4078ZM18.0415 21.4078V27.5034C18.0415 29.305 19.4672 30.7725 21.2185 30.7725H27.6269C29.3782 30.7725 30.8039 29.3071 30.8039 27.5034V21.4078C30.8039 19.6062 29.3782 18.1387 27.6269 18.1387H21.2185C19.4672 18.1387 18.0415 19.6042 18.0415 21.4078ZM0 10.6193V4.52371C0 2.05623 1.95173 0.0501011 4.35225 0.0501011H10.7606C13.1611 0.0501011 15.1129 2.05623 15.1129 4.52371V10.6193C15.1129 13.0868 13.1611 15.093 10.7606 15.093H4.35225C1.95173 15.093 0 13.0868 0 10.6193ZM4.35225 13.8884H10.7606C12.5119 13.8884 13.9376 12.423 13.9376 10.6193V4.52371C13.9376 2.72216 12.5119 1.25462 10.7606 1.25462H4.35225C2.60091 1.25462 1.17521 2.72007 1.17521 4.52371V10.6193C1.17521 12.4209 2.60091 13.8884 4.35225 13.8884Z" fill="#000928"/>
</svg>
