<svg width="16" height="14" viewBox="0 0 16 14" fill="none" xmlns="http://www.w3.org/2000/svg">
<path d="M1.67188 9.94727C1.87109 11.0605 2.53906 11.5293 3.66992 11.3301L3.74609 11.3184V11.3359C3.74609 12.4727 4.32617 13.0469 5.47461 13.0469H13.6074C14.75 13.0469 15.3359 12.4668 15.3359 11.3359V5.76367C15.3359 4.63867 14.75 4.05273 13.6074 4.05273H12.2539L11.9727 2.4707C11.7734 1.35742 11.0996 0.888672 9.97461 1.08789L2.10547 2.4707C0.974609 2.66992 0.505859 3.34375 0.705078 4.45703L1.67188 9.94727ZM2.375 9.7832L1.41992 4.36914C1.30273 3.70117 1.5957 3.29688 2.24609 3.18555L10.0859 1.80273C10.7188 1.69141 11.1465 1.96094 11.2695 2.63477L11.5215 4.05273H5.47461C4.32617 4.05273 3.74609 4.63281 3.74609 5.76367V10.5801L3.55859 10.6152C2.9082 10.7266 2.49219 10.4512 2.375 9.7832ZM5.48633 12.3262C4.83008 12.3262 4.47266 11.9746 4.47266 11.3008V5.80469C4.47266 5.125 4.83008 4.7793 5.48633 4.7793H13.5957C14.2402 4.7793 14.6094 5.125 14.6094 5.80469V11.3008C14.6094 11.9746 14.2402 12.3262 13.5957 12.3262H5.48633Z" fill="white"/>
</svg>
