<svg width="22" height="19" viewBox="0 0 22 19" fill="none" xmlns="http://www.w3.org/2000/svg">
<path d="M4.91406 16.7578C5.03385 16.7578 5.14583 16.7266 5.25 16.6641C5.35938 16.6016 5.48177 16.5052 5.61719 16.375L8.00781 14.1484C7.85677 13.9974 7.72656 13.7891 7.61719 13.5234C7.50781 13.2578 7.45312 12.8776 7.45312 12.3828V7.40625C7.45312 6.65625 7.59375 6.01823 7.875 5.49219C8.16146 4.96094 8.57031 4.55469 9.10156 4.27344C9.63281 3.99219 10.2734 3.85156 11.0234 3.85156H16.5703V3.33594C16.5391 2.79427 16.4115 2.33073 16.1875 1.94531C15.9635 1.55469 15.6458 1.25521 15.2344 1.04688C14.8229 0.833333 14.3281 0.726562 13.75 0.726562H3.22656C2.35156 0.726562 1.66146 0.96875 1.15625 1.45312C0.651042 1.9375 0.398438 2.6276 0.398438 3.52344V10.9766C0.398438 11.8672 0.651042 12.5703 1.15625 13.0859C1.66146 13.5964 2.35156 13.8516 3.22656 13.8516H4.35156V16.1172C4.35156 16.3099 4.40104 16.4635 4.5 16.5781C4.59896 16.6979 4.73698 16.7578 4.91406 16.7578ZM17.5938 18.0078C17.7656 18.0078 17.901 17.9479 18 17.8281C18.1042 17.7135 18.1562 17.5599 18.1562 17.3672V15.1016H18.7734C19.6432 15.1016 20.3307 14.8464 20.8359 14.3359C21.3464 13.8203 21.6016 13.1146 21.6016 12.2188V7.55469C21.6016 6.66406 21.3464 5.97656 20.8359 5.49219C20.3307 5.0026 19.6432 4.75781 18.7734 4.75781H11.1875C10.2917 4.75781 9.59635 5.0026 9.10156 5.49219C8.61198 5.97656 8.36719 6.66667 8.36719 7.5625V12.2188C8.36719 13.1146 8.61198 13.8203 9.10156 14.3359C9.59635 14.8464 10.2917 15.1016 11.1875 15.1016H14.0547L16.8828 17.625C17.0234 17.75 17.1458 17.8438 17.25 17.9062C17.3542 17.974 17.4688 18.0078 17.5938 18.0078Z" fill="#000928" fill-opacity="0.87"/>
</svg>
