<svg width="22" height="18" viewBox="0 0 22 18" fill="none" xmlns="http://www.w3.org/2000/svg">
<path d="M5.13281 17.0391C5.28906 17.0391 5.43229 17.0052 5.5625 16.9375C5.69792 16.875 5.85677 16.763 6.03906 16.6016L9.20312 13.6797L8.60938 12.9219L5.36719 15.9766V13.6719C5.36719 13.5052 5.32292 13.3802 5.23438 13.2969C5.14583 13.2135 5.03125 13.1719 4.89062 13.1719H3.50781C2.77865 13.1719 2.21875 12.9818 1.82812 12.6016C1.4375 12.2161 1.24219 11.6484 1.24219 10.8984V3.96875C1.24219 3.21875 1.4375 2.65104 1.82812 2.26562C2.21875 1.88021 2.77865 1.6875 3.50781 1.6875H14.2266C14.9557 1.6875 15.5156 1.88021 15.9062 2.26562C16.2969 2.65104 16.4922 3.21875 16.4922 3.96875V5.20312H17.4531V3.89844C17.4531 3.24219 17.3281 2.68229 17.0781 2.21875C16.8333 1.75521 16.4766 1.40104 16.0078 1.15625C15.5391 0.90625 14.974 0.78125 14.3125 0.78125H3.42188C2.77604 0.78125 2.21875 0.90625 1.75 1.15625C1.28125 1.40104 0.919271 1.75521 0.664062 2.21875C0.408854 2.68229 0.28125 3.24219 0.28125 3.89844V10.9531C0.28125 11.6146 0.408854 12.1797 0.664062 12.6484C0.919271 13.112 1.28125 13.4661 1.75 13.7109C2.21875 13.9505 2.77604 14.0703 3.42188 14.0703H4.46094V16.2891C4.46094 16.5234 4.51823 16.7057 4.63281 16.8359C4.7526 16.9714 4.91927 17.0391 5.13281 17.0391ZM17.7656 17.9609C17.9688 17.9609 18.125 17.8932 18.2344 17.7578C18.349 17.6224 18.4062 17.4453 18.4062 17.2266V15.3516H18.8516C19.4349 15.3516 19.9401 15.2396 20.3672 15.0156C20.7995 14.7917 21.1328 14.4688 21.3672 14.0469C21.6016 13.625 21.7188 13.112 21.7188 12.5078V7.63281C21.7188 7.02865 21.6016 6.51562 21.3672 6.09375C21.1328 5.66667 20.7995 5.34115 20.3672 5.11719C19.9401 4.89323 19.4349 4.78125 18.8516 4.78125H11.0625C10.4583 4.78125 9.9401 4.89323 9.50781 5.11719C9.08073 5.34115 8.75521 5.66667 8.53125 6.09375C8.30729 6.51562 8.19531 7.02865 8.19531 7.63281V12.5156C8.19531 13.1198 8.30729 13.6328 8.53125 14.0547C8.75521 14.4766 9.08073 14.7969 9.50781 15.0156C9.9401 15.2396 10.4583 15.3516 11.0625 15.3516H14.4141L16.9375 17.5078C17.1094 17.6536 17.2552 17.7656 17.375 17.8438C17.4948 17.9219 17.625 17.9609 17.7656 17.9609ZM17.5078 16.8672L15.125 14.7422C14.9948 14.6276 14.8776 14.5495 14.7734 14.5078C14.6745 14.4661 14.5417 14.4453 14.375 14.4453H11.1406C10.5052 14.4453 10.013 14.2812 9.66406 13.9531C9.32031 13.6198 9.14844 13.1224 9.14844 12.4609L9.15625 7.6875C9.15625 7.03125 9.32812 6.53385 9.67188 6.19531C10.0156 5.85677 10.5052 5.6875 11.1406 5.6875H18.7734C19.4089 5.6875 19.8984 5.85677 20.2422 6.19531C20.5911 6.53385 20.7656 7.03125 20.7656 7.6875V12.4531C20.7656 13.1094 20.5911 13.6068 20.2422 13.9453C19.8932 14.2786 19.4036 14.4453 18.7734 14.4453H17.9688C17.8385 14.4453 17.7292 14.4844 17.6406 14.5625C17.5521 14.6406 17.5078 14.7604 17.5078 14.9219V16.8672Z" fill="#000928" fill-opacity="0.5"/>
</svg>
