<svg width="17" height="16" viewBox="0 0 17 16" fill="none" xmlns="http://www.w3.org/2000/svg">
<path fill-rule="evenodd" clip-rule="evenodd" d="M8.50006 3.09333C10.0023 3.09333 11.0156 3.74222 11.5934 4.28444L13.8512 2.08C12.4645 0.791111 10.6601 0 8.50006 0C5.37117 0 2.66895 1.79556 1.35339 4.40889L3.94006 6.41778C4.58895 4.48889 6.3845 3.09333 8.50006 3.09333Z" fill="#EA4335"/>
<path fill-rule="evenodd" clip-rule="evenodd" d="M16.18 8.17776C16.18 7.51998 16.1267 7.03998 16.0111 6.54221H8.5V9.51109H12.9089C12.82 10.2489 12.34 11.36 11.2733 12.1066L13.7978 14.0622C15.3089 12.6666 16.18 10.6133 16.18 8.17776Z" fill="#4285F4"/>
<path fill-rule="evenodd" clip-rule="evenodd" d="M3.94889 9.58218C3.78 9.0844 3.68222 8.55107 3.68222 7.99996C3.68222 7.44884 3.78 6.91551 3.94 6.41773L1.35333 4.40884C0.811111 5.49329 0.5 6.71107 0.5 7.99996C0.5 9.28884 0.811111 10.5066 1.35333 11.5911L3.94889 9.58218Z" fill="#FBBC05"/>
<path fill-rule="evenodd" clip-rule="evenodd" d="M8.50008 16C10.6601 16 12.4734 15.2889 13.7979 14.0622L11.2734 12.1067C10.5979 12.5778 9.69119 12.9067 8.50008 12.9067C6.38453 12.9067 4.58897 11.5111 3.94897 9.58221L1.3623 11.5911C2.67786 14.2044 5.37119 16 8.50008 16Z" fill="#34A853"/>
</svg>
