<svg width="20" height="18" viewBox="0 0 20 18" fill="none" xmlns="http://www.w3.org/2000/svg">
<path d="M12.1001 16.5938H7.8833V10.9824C7.8833 10.8109 7.93587 10.6753 8.04102 10.5757C8.15169 10.4705 8.29281 10.418 8.46436 10.418H11.5356C11.7072 10.418 11.8428 10.4705 11.9424 10.5757C12.0475 10.6753 12.1001 10.8109 12.1001 10.9824V16.5938ZM2.80322 15.9297C2.80322 16.4609 2.95264 16.8732 3.25146 17.1665C3.55583 17.4653 3.9764 17.6147 4.51318 17.6147H15.5034C16.0402 17.6147 16.458 17.4653 16.7568 17.1665C17.0557 16.8732 17.2051 16.4609 17.2051 15.9297V8.81592L10.5146 3.20459C10.1715 2.91683 9.82845 2.91683 9.48535 3.20459L2.80322 8.80762V15.9297ZM0.429199 8.39258C0.429199 8.51986 0.476237 8.63607 0.570312 8.74121C0.669922 8.84082 0.802734 8.89062 0.96875 8.89062C1.05729 8.89062 1.13753 8.87126 1.20947 8.83252C1.28141 8.79378 1.35059 8.74951 1.41699 8.69971L9.68457 1.76025C9.78418 1.67171 9.88932 1.62467 10 1.61914C10.1107 1.61361 10.2214 1.66064 10.332 1.76025L18.5913 8.69971C18.6522 8.74951 18.7186 8.79378 18.7905 8.83252C18.8625 8.87126 18.9427 8.89062 19.0312 8.89062C19.1751 8.89062 19.2996 8.84912 19.4048 8.76611C19.5099 8.67757 19.5625 8.55859 19.5625 8.40918C19.5625 8.2321 19.4933 8.08545 19.355 7.96924L10.8965 0.855469C10.6198 0.617513 10.3237 0.498535 10.0083 0.498535C9.69287 0.498535 9.39681 0.617513 9.12012 0.855469L0.64502 7.96924C0.501139 8.08545 0.429199 8.22656 0.429199 8.39258ZM15.437 5.09717L17.2051 6.59961V2.78125C17.2051 2.6263 17.158 2.50456 17.064 2.41602C16.9754 2.32747 16.8592 2.2832 16.7153 2.2832H15.9351C15.7912 2.2832 15.6722 2.32747 15.5781 2.41602C15.484 2.50456 15.437 2.6263 15.437 2.78125V5.09717Z" fill="#000928" fill-opacity="0.87"/>
</svg>
