<svg width="20" height="18" viewBox="0 0 20 18" fill="none" xmlns="http://www.w3.org/2000/svg">
<path d="M7.65088 16.9756H12.3408V10.8247C12.3408 10.6532 12.2882 10.5148 12.1831 10.4097C12.078 10.3045 11.9424 10.252 11.7764 10.252H8.22363C8.05208 10.252 7.91374 10.3045 7.80859 10.4097C7.70345 10.5148 7.65088 10.6532 7.65088 10.8247V16.9756ZM4.39697 17.6147H15.5781C16.126 17.6147 16.5493 17.4653 16.8481 17.1665C17.147 16.8732 17.2964 16.4582 17.2964 15.9214V6.77393L16.2754 6.05176V15.6641C16.2754 15.974 16.1979 16.2064 16.043 16.3613C15.8936 16.5163 15.6667 16.5938 15.3623 16.5938H4.61279C4.30843 16.5938 4.07878 16.5163 3.92383 16.3613C3.77441 16.2064 3.69971 15.974 3.69971 15.6641V6.06836L2.67871 6.77393V15.9214C2.67871 16.4637 2.82812 16.8815 3.12695 17.1748C3.42578 17.4681 3.84912 17.6147 4.39697 17.6147ZM0.429199 8.39258C0.429199 8.51986 0.476237 8.63607 0.570312 8.74121C0.669922 8.84082 0.802734 8.89062 0.96875 8.89062C1.05729 8.89062 1.13753 8.87126 1.20947 8.83252C1.28141 8.79378 1.35059 8.74951 1.41699 8.69971L9.68457 1.76025C9.78418 1.67171 9.88932 1.62467 10 1.61914C10.1107 1.61361 10.2214 1.66064 10.332 1.76025L18.5913 8.69971C18.6522 8.74951 18.7186 8.79378 18.7905 8.83252C18.8625 8.87126 18.9427 8.89062 19.0312 8.89062C19.1751 8.89062 19.2996 8.84912 19.4048 8.76611C19.5099 8.67757 19.5625 8.55859 19.5625 8.40918C19.5625 8.2321 19.4933 8.08545 19.355 7.96924L10.8965 0.855469C10.6198 0.617513 10.3237 0.498535 10.0083 0.498535C9.69287 0.498535 9.39681 0.617513 9.12012 0.855469L0.64502 7.96924C0.501139 8.08545 0.429199 8.22656 0.429199 8.39258ZM15.5283 5.09717L17.2964 6.59961V2.78125C17.2964 2.6263 17.2493 2.50456 17.1553 2.41602C17.0667 2.32747 16.9478 2.2832 16.7983 2.2832H16.0181C15.8742 2.2832 15.7552 2.32747 15.6611 2.41602C15.5726 2.50456 15.5283 2.6263 15.5283 2.78125V5.09717Z" fill="#000928" fill-opacity="0.5"/>
</svg>
