<svg width="19" height="18" viewBox="0 0 19 18" fill="none" xmlns="http://www.w3.org/2000/svg">
<path d="M0.418945 8.25146V15.8135C0.418945 16.0238 0.465983 16.2036 0.560059 16.353C0.659668 16.5024 0.789714 16.6159 0.950195 16.6934C1.11068 16.7764 1.28499 16.8151 1.47314 16.8096C1.6613 16.8096 1.83561 16.7681 1.99609 16.6851C2.15658 16.6076 2.28385 16.4941 2.37793 16.3447C2.47201 16.2008 2.51904 16.0238 2.51904 15.8135V6.85693H1.88818C1.58382 6.85693 1.32096 6.91227 1.09961 7.02295C0.883789 7.13363 0.715007 7.29411 0.593262 7.50439C0.477051 7.71468 0.418945 7.9637 0.418945 8.25146ZM2.98389 17.8555H16.1406C16.9486 17.8555 17.5573 17.6535 17.9668 17.2495C18.3763 16.8455 18.5811 16.2424 18.5811 15.4399V2.59033C18.5811 1.78792 18.3763 1.18473 17.9668 0.780762C17.5573 0.371257 16.9486 0.166504 16.1406 0.166504H6.2959C5.48796 0.166504 4.87923 0.371257 4.46973 0.780762C4.06022 1.18473 3.85547 1.78792 3.85547 2.59033V16.27C3.85547 16.6851 3.78906 17.0171 3.65625 17.2661C3.52897 17.5151 3.30485 17.7116 2.98389 17.8555ZM7.05957 4.90625C6.93783 4.90625 6.83545 4.86751 6.75244 4.79004C6.67497 4.70703 6.63623 4.60742 6.63623 4.49121C6.63623 4.38053 6.67497 4.28646 6.75244 4.20898C6.83545 4.13151 6.93783 4.09277 7.05957 4.09277H15.3936C15.5098 4.09277 15.6066 4.13151 15.6841 4.20898C15.7671 4.28646 15.8086 4.38053 15.8086 4.49121C15.8086 4.60742 15.7671 4.70703 15.6841 4.79004C15.6066 4.86751 15.5098 4.90625 15.3936 4.90625H7.05957ZM7.05957 7.88623C6.93783 7.88623 6.83545 7.84749 6.75244 7.77002C6.67497 7.69255 6.63623 7.5957 6.63623 7.47949C6.63623 7.36328 6.67497 7.26644 6.75244 7.18896C6.83545 7.11149 6.93783 7.07275 7.05957 7.07275H15.3936C15.5098 7.07275 15.6066 7.11149 15.6841 7.18896C15.7671 7.26644 15.8086 7.36328 15.8086 7.47949C15.8086 7.5957 15.7671 7.69255 15.6841 7.77002C15.6066 7.84749 15.5098 7.88623 15.3936 7.88623H7.05957ZM12.2393 10.8579C12.1175 10.8579 12.0179 10.8192 11.9404 10.7417C11.863 10.6642 11.8242 10.5701 11.8242 10.4595C11.8242 10.3433 11.863 10.2464 11.9404 10.1689C12.0179 10.0859 12.1175 10.0444 12.2393 10.0444H15.3853C15.5015 10.0444 15.5983 10.0859 15.6758 10.1689C15.7588 10.2464 15.8003 10.3433 15.8003 10.4595C15.8003 10.5701 15.7588 10.6642 15.6758 10.7417C15.5983 10.8192 15.5015 10.8579 15.3853 10.8579H12.2393ZM12.2393 13.8794C12.1175 13.8794 12.0179 13.8407 11.9404 13.7632C11.863 13.6857 11.8242 13.5916 11.8242 13.481C11.8242 13.3592 11.863 13.2596 11.9404 13.1821C12.0179 13.1047 12.1175 13.0659 12.2393 13.0659H15.3853C15.5015 13.0659 15.5983 13.1047 15.6758 13.1821C15.7588 13.2596 15.8003 13.3592 15.8003 13.481C15.8003 13.5916 15.7588 13.6857 15.6758 13.7632C15.5983 13.8407 15.5015 13.8794 15.3853 13.8794H12.2393ZM7.55762 13.9707C7.26432 13.9707 7.0319 13.8877 6.86035 13.7217C6.69434 13.5557 6.61133 13.3288 6.61133 13.041V10.9907C6.61133 10.703 6.69434 10.4733 6.86035 10.3018C7.0319 10.1302 7.26432 10.0444 7.55762 10.0444H9.67432C9.96208 10.0444 10.189 10.1302 10.355 10.3018C10.5265 10.4733 10.6123 10.703 10.6123 10.9907V13.041C10.6123 13.3288 10.5265 13.5557 10.355 13.7217C10.189 13.8877 9.96208 13.9707 9.67432 13.9707H7.55762Z" fill="#000928" fill-opacity="0.87"/>
</svg>
