<svg width="19" height="18" viewBox="0 0 19 18" fill="none" xmlns="http://www.w3.org/2000/svg">
<path d="M0.311035 15.6226C0.311035 16.3475 0.496419 16.9009 0.867188 17.2827C1.23796 17.6646 1.79688 17.8555 2.54395 17.8555H16.2485C17.0565 17.8555 17.6652 17.6535 18.0747 17.2495C18.4842 16.8455 18.689 16.2424 18.689 15.4399V2.59033C18.689 1.78792 18.4842 1.18473 18.0747 0.780762C17.6652 0.371257 17.0565 0.166504 16.2485 0.166504H6.18799C5.38005 0.166504 4.77132 0.371257 4.36182 0.780762C3.95231 1.18473 3.74756 1.78792 3.74756 2.59033V6.85693H1.81348C1.3431 6.85693 0.975098 6.98145 0.709473 7.23047C0.443848 7.47396 0.311035 7.81706 0.311035 8.25977V15.6226ZM1.33203 15.6143V8.43408C1.33203 8.26253 1.38184 8.12972 1.48145 8.03564C1.58659 7.93604 1.7277 7.88623 1.90479 7.88623H3.74756V15.6143C3.74756 15.974 3.63135 16.2673 3.39893 16.4941C3.17204 16.721 2.88704 16.8345 2.54395 16.8345C2.19531 16.8345 1.90479 16.7183 1.67236 16.4858C1.44548 16.259 1.33203 15.9684 1.33203 15.6143ZM4.41992 16.8345C4.65234 16.4914 4.76855 16.0708 4.76855 15.5728V2.64844C4.76855 2.16699 4.89307 1.80452 5.14209 1.56104C5.39111 1.31201 5.74805 1.1875 6.21289 1.1875H16.2236C16.694 1.1875 17.0509 1.31201 17.2944 1.56104C17.5435 1.80452 17.668 2.16699 17.668 2.64844V15.3818C17.668 15.8633 17.5435 16.2257 17.2944 16.4692C17.0509 16.7127 16.694 16.8345 16.2236 16.8345H4.41992ZM7.05957 4.90625H15.3936C15.5098 4.90625 15.6066 4.86751 15.6841 4.79004C15.7671 4.70703 15.8086 4.60742 15.8086 4.49121C15.8086 4.38053 15.7671 4.28646 15.6841 4.20898C15.6066 4.13151 15.5098 4.09277 15.3936 4.09277H7.05957C6.93783 4.09277 6.83545 4.13151 6.75244 4.20898C6.67497 4.28646 6.63623 4.38053 6.63623 4.49121C6.63623 4.60742 6.67497 4.70703 6.75244 4.79004C6.83545 4.86751 6.93783 4.90625 7.05957 4.90625ZM7.05957 7.88623H15.3936C15.5098 7.88623 15.6066 7.84749 15.6841 7.77002C15.7671 7.69255 15.8086 7.5957 15.8086 7.47949C15.8086 7.36328 15.7671 7.26644 15.6841 7.18896C15.6066 7.11149 15.5098 7.07275 15.3936 7.07275H7.05957C6.93783 7.07275 6.83545 7.11149 6.75244 7.18896C6.67497 7.26644 6.63623 7.36328 6.63623 7.47949C6.63623 7.5957 6.67497 7.69255 6.75244 7.77002C6.83545 7.84749 6.93783 7.88623 7.05957 7.88623ZM7.59082 13.8794H9.74902C10.0479 13.8794 10.283 13.7936 10.4546 13.6221C10.6261 13.4505 10.7119 13.2153 10.7119 12.9165V11.0156C10.7119 10.7168 10.6261 10.4816 10.4546 10.3101C10.283 10.133 10.0479 10.0444 9.74902 10.0444H7.59082C7.28646 10.0444 7.0485 10.133 6.87695 10.3101C6.7054 10.4816 6.61963 10.7168 6.61963 11.0156V12.9165C6.61963 13.2153 6.7054 13.4505 6.87695 13.6221C7.0485 13.7936 7.28646 13.8794 7.59082 13.8794ZM12.2393 10.8579H15.3853C15.507 10.8579 15.6066 10.8192 15.6841 10.7417C15.7616 10.6642 15.8003 10.5701 15.8003 10.4595C15.8003 10.3433 15.7616 10.2464 15.6841 10.1689C15.6066 10.0859 15.507 10.0444 15.3853 10.0444H12.2393C12.1175 10.0444 12.0179 10.0859 11.9404 10.1689C11.863 10.2464 11.8242 10.3433 11.8242 10.4595C11.8242 10.5701 11.863 10.6642 11.9404 10.7417C12.0179 10.8192 12.1175 10.8579 12.2393 10.8579ZM12.2393 13.8794H15.3853C15.507 13.8794 15.6066 13.8407 15.6841 13.7632C15.7616 13.6857 15.8003 13.5916 15.8003 13.481C15.8003 13.3592 15.7616 13.2596 15.6841 13.1821C15.6066 13.1047 15.507 13.0659 15.3853 13.0659H12.2393C12.1175 13.0659 12.0179 13.1047 11.9404 13.1821C11.863 13.2596 11.8242 13.3592 11.8242 13.481C11.8242 13.5916 11.863 13.6857 11.9404 13.7632C12.0179 13.8407 12.1175 13.8794 12.2393 13.8794Z" fill="#000928" fill-opacity="0.5"/>
</svg>
