<svg width="44" height="44" viewBox="0 0 44 44" fill="none" xmlns="http://www.w3.org/2000/svg">
<path d="M12.7188 32.4648H31.5039C33.5664 32.4648 34.7266 31.293 34.7266 29.0312V16.082C34.7266 13.832 33.5547 12.6602 31.2812 12.6602H12.4844C10.4219 12.6602 9.26172 13.8203 9.26172 16.082V29.0312C9.26172 31.3047 10.4336 32.4648 12.7188 32.4648ZM20.6055 23.3711L11.4414 14.3477C11.7578 14.1484 12.1797 14.043 12.6836 14.043H31.3047C31.832 14.043 32.2656 14.1602 32.6055 14.3945L23.4766 23.3711C22.9727 23.875 22.4922 24.0742 22.0352 24.0742C21.5898 24.0742 21.0977 23.8516 20.6055 23.3711ZM10.6445 29.0195V16.0938C10.6445 15.8828 10.668 15.6953 10.7031 15.5195L17.957 22.6328L10.7148 29.6875C10.668 29.4883 10.6445 29.2656 10.6445 29.0195ZM33.3438 16.0938V29.0312C33.3438 29.2422 33.3203 29.4414 33.2852 29.6172L26.125 22.6328L33.3086 15.6016C33.332 15.7539 33.3438 15.918 33.3438 16.0938ZM12.6836 31.0703C12.2148 31.0703 11.8281 30.9883 11.5117 30.8125L18.918 23.5703L19.7852 24.4258C20.5469 25.1758 21.2969 25.4688 22.0352 25.4688C22.7734 25.4688 23.5234 25.1758 24.2969 24.4258L25.1641 23.5703L32.5234 30.7773C32.207 30.9766 31.7969 31.0703 31.3047 31.0703H12.6836Z" fill="#000928" fill-opacity="0.87"/>
<circle cx="34" cy="14" r="5" fill="#F34B4B" stroke="white" stroke-width="2"/>
</svg>
