<svg width="6" height="9" viewBox="0 0 6 9" fill="none" xmlns="http://www.w3.org/2000/svg">
<path d="M5.41504 4.47461C5.41504 4.37695 5.38086 4.29395 5.30762 4.22559L1.40625 0.504883C1.33789 0.441406 1.25977 0.407227 1.16211 0.407227C0.976562 0.407227 0.825195 0.553711 0.825195 0.744141C0.825195 0.836914 0.864258 0.919922 0.922852 0.983398L4.58984 4.47461L0.922852 7.96582C0.864258 8.02441 0.825195 8.10742 0.825195 8.2002C0.825195 8.39551 0.976562 8.53711 1.16211 8.53711C1.25977 8.53711 1.33789 8.50293 1.40625 8.43945L5.30762 4.72363C5.38086 4.65527 5.41504 4.57227 5.41504 4.47461Z" fill="#000928" fill-opacity="0.3"/>
</svg>
